M48
INCH,LZ
;FILE_FORMAT=2:4
;TYPE=PLATED
;Layer: Drill PTH
;EasyEDA v6.4.19.5, 2021-06-01T19:55:23+08:00
;f6417cd83a5c4070a8feff0417839a82,e682ae8673584cf28fd3bb4b7cd2207e,10
;Gerber Generator version 0.2
;Holesize 1 = 0.0120 inch
T01C0.0120
;Holesize 2 = 0.0240 inch
T02C0.0240
;Holesize 3 = 0.0280 inch
T03C0.0280
;Holesize 4 = 0.0320 inch
T04C0.0320
;Holesize 5 = 0.0390 inch
T05C0.0390
;Holesize 6 = 0.0430 inch
T06C0.0430
;Holesize 7 = 0.1380 inch
T07C0.1380
%
G05
G90
T01
X010200Y-012350
X007200Y-012350
X009350Y-012100
X000650Y-014650
X002450Y-012000
X002900Y-012050
X000950Y-014450
X004150Y-010700
X011200Y-016850
X012250Y-013300
X012150Y-014150
X008900Y-012850
X009950Y-012000
X017350Y-011650
X014650Y-008750
X014650Y-008300
X014650Y-007900
X014950Y-008750
X014950Y-008300
X014950Y-007900
X004450Y-007750
X005450Y-009350
X005600Y-008400
X004700Y-005050
X004700Y-005450
X012600Y-017850
X012550Y-019350
X006800Y-019350
X006800Y-018900
X004500Y-013150
X004500Y-014150
X018750Y-015650
X019200Y-014150
X019100Y-015650
X018750Y-016000
X019100Y-016000
X007950Y-009800
X011800Y-010150
X009350Y-010600
X009250Y-013050
X009700Y-013800
X012200Y-014600
X011400Y-010700
X014300Y-007000
T02
X007857Y-018650G85X007975Y-018650
X008841Y-018650G85X008959Y-018650
X009825Y-018650G85X009943Y-018650
X018700Y-009793G85X018700Y-009675
X018700Y-008809G85X018700Y-008691
X018700Y-007825G85X018700Y-007707
T03
X000617Y-016367G85X000932Y-016367
X000617Y-013533G85X000932Y-013533
X001826Y-013995
X001826Y-015905
T04
X006000Y-013339
X006000Y-015261
T05
X015696Y-002054
X014304Y-003446
X016801Y-015150G85X016799Y-015150
X016801Y-014150G85X016799Y-014150
X016801Y-013150G85X016799Y-013150
X016801Y-012150G85X016799Y-012150
X016801Y-011150G85X016799Y-011150
X016801Y-010150G85X016799Y-010150
X016801Y-009150G85X016799Y-009150
X016801Y-008150G85X016799Y-008150
X016801Y-007150G85X016799Y-007150
X016801Y-006150G85X016799Y-006150
X016801Y-005150G85X016799Y-005150
T06
X004508Y-017500
X005492Y-017500
T07
X017913Y-001772
X001772Y-001772
X001772Y-017913
X017913Y-017913
M30
