G04 Layer: TopSilkLayer*
G04 EasyEDA v6.4.19.5, 2021-06-01T19:55:23+08:00*
G04 f6417cd83a5c4070a8feff0417839a82,e682ae8673584cf28fd3bb4b7cd2207e,10*
G04 Gerber Generator version 0.2*
G04 Scale: 100 percent, Rotated: No, Reflected: No *
G04 Dimensions in inches *
G04 leading zeros omitted , absolute positions ,3 integer and 6 decimal *
%FSLAX36Y36*%
%MOIN*%

%ADD10C,0.0100*%
%ADD12C,0.0118*%
%ADD46C,0.0060*%
%ADD47C,0.0079*%
%ADD48C,0.0102*%
%ADD49C,0.0080*%
%ADD50C,0.0157*%
%ADD51C,0.0040*%

%LPD*%
G36*
X376599Y-299840D02*
G01*
X334380Y-299940D01*
X318540Y-300100D01*
X314180Y-300220D01*
X311680Y-300380D01*
X310660Y-300580D01*
X310480Y-300860D01*
X310340Y-302080D01*
X310140Y-307920D01*
X310058Y-315920D01*
X470620Y-315920D01*
X470640Y-314660D01*
X471140Y-313740D01*
X472320Y-312960D01*
X474360Y-312140D01*
X477120Y-311440D01*
X480160Y-311200D01*
X483300Y-311380D01*
X486280Y-312000D01*
X488340Y-312740D01*
X490280Y-313660D01*
X492060Y-314760D01*
X493720Y-316040D01*
X495200Y-317460D01*
X496520Y-319040D01*
X497660Y-320740D01*
X498620Y-322560D01*
X499380Y-324480D01*
X499920Y-326500D01*
X500260Y-328600D01*
X500379Y-330760D01*
X500260Y-333320D01*
X499820Y-334900D01*
X498940Y-335680D01*
X497520Y-335900D01*
X496180Y-335660D01*
X495300Y-334840D01*
X494780Y-333260D01*
X494180Y-327920D01*
X493459Y-325560D01*
X492299Y-323420D01*
X490600Y-321340D01*
X489180Y-320000D01*
X487700Y-318920D01*
X486120Y-318100D01*
X484440Y-317520D01*
X482660Y-317200D01*
X480780Y-317120D01*
X478780Y-317280D01*
X473840Y-318220D01*
X472060Y-318140D01*
X471060Y-317400D01*
X470620Y-315920D01*
X310058Y-315920D01*
X310070Y-339020D01*
X325740Y-339020D01*
X326040Y-336980D01*
X327040Y-335580D01*
X328840Y-334720D01*
X331580Y-334320D01*
X335319Y-334080D01*
X335360Y-328640D01*
X335580Y-327299D01*
X336019Y-326260D01*
X336780Y-325240D01*
X338220Y-324000D01*
X339840Y-323500D01*
X341480Y-323740D01*
X343020Y-324739D01*
X343700Y-325520D01*
X344099Y-326460D01*
X344186Y-327140D01*
X474120Y-327140D01*
X474140Y-325720D01*
X474840Y-324560D01*
X476079Y-323700D01*
X477720Y-323180D01*
X479620Y-323000D01*
X481659Y-323220D01*
X483640Y-323840D01*
X485480Y-324900D01*
X487740Y-327280D01*
X489140Y-330080D01*
X489540Y-332879D01*
X488800Y-335220D01*
X487239Y-336400D01*
X485540Y-336220D01*
X484120Y-334880D01*
X482840Y-330740D01*
X481719Y-329460D01*
X480180Y-328860D01*
X478400Y-329060D01*
X476880Y-329360D01*
X475620Y-329140D01*
X474700Y-328380D01*
X474120Y-327140D01*
X344186Y-327140D01*
X344280Y-327879D01*
X344320Y-334200D01*
X355480Y-334240D01*
X357879Y-334400D01*
X359300Y-334760D01*
X360300Y-335379D01*
X361360Y-336680D01*
X361780Y-338300D01*
X361580Y-340000D01*
X360720Y-341620D01*
X359940Y-342360D01*
X358660Y-342780D01*
X356180Y-343040D01*
X344040Y-343500D01*
X344080Y-354060D01*
X344240Y-356360D01*
X344600Y-357760D01*
X345240Y-358820D01*
X346728Y-360400D01*
X367140Y-360400D01*
X367140Y-337680D01*
X368500Y-336220D01*
X370140Y-335080D01*
X372000Y-334700D01*
X373780Y-335080D01*
X375240Y-336220D01*
X375860Y-337220D01*
X376160Y-338760D01*
X376200Y-341599D01*
X375920Y-352500D01*
X376019Y-354660D01*
X376200Y-356400D01*
X376520Y-357780D01*
X377000Y-358900D01*
X377600Y-359840D01*
X378400Y-360680D01*
X380100Y-361719D01*
X382260Y-362239D01*
X384580Y-362180D01*
X386760Y-361540D01*
X387900Y-360900D01*
X388840Y-360060D01*
X389580Y-359020D01*
X390180Y-357640D01*
X390620Y-355900D01*
X390959Y-353720D01*
X391200Y-351019D01*
X391840Y-339440D01*
X391980Y-338320D01*
X393020Y-336340D01*
X394920Y-335120D01*
X397200Y-334840D01*
X399420Y-335660D01*
X400120Y-336320D01*
X400480Y-337600D01*
X400640Y-340260D01*
X400660Y-345080D01*
X400580Y-349460D01*
X400402Y-352520D01*
X406120Y-352520D01*
X406240Y-347480D01*
X406460Y-343480D01*
X406780Y-340379D01*
X407280Y-338080D01*
X407939Y-336460D01*
X408820Y-335460D01*
X409960Y-334920D01*
X411360Y-334780D01*
X412460Y-334840D01*
X413320Y-335080D01*
X414020Y-335520D01*
X414660Y-336200D01*
X415260Y-337220D01*
X415560Y-338860D01*
X415600Y-341960D01*
X415319Y-352900D01*
X415360Y-356060D01*
X415680Y-357819D01*
X416340Y-359120D01*
X417680Y-360720D01*
X419340Y-361800D01*
X421180Y-362340D01*
X423100Y-362380D01*
X425000Y-361920D01*
X426760Y-361000D01*
X428260Y-359580D01*
X429380Y-357720D01*
X429880Y-356140D01*
X430300Y-353880D01*
X430620Y-350720D01*
X431220Y-341599D01*
X431540Y-338760D01*
X432020Y-337220D01*
X432760Y-336200D01*
X434280Y-335160D01*
X436079Y-334739D01*
X437860Y-335000D01*
X439260Y-335920D01*
X439960Y-336960D01*
X440260Y-338820D01*
X440240Y-342540D01*
X439705Y-353320D01*
X445200Y-353320D01*
X445280Y-351400D01*
X445580Y-349460D01*
X446060Y-347580D01*
X446740Y-345720D01*
X447580Y-343940D01*
X448600Y-342239D01*
X449760Y-340640D01*
X451079Y-339159D01*
X452540Y-337819D01*
X454120Y-336620D01*
X455820Y-335600D01*
X457620Y-334760D01*
X459540Y-334140D01*
X462400Y-333800D01*
X465959Y-333920D01*
X469460Y-334420D01*
X472040Y-335260D01*
X473800Y-336240D01*
X475379Y-337340D01*
X476780Y-338540D01*
X478000Y-339880D01*
X479080Y-341340D01*
X480020Y-342960D01*
X480820Y-344720D01*
X481480Y-346659D01*
X481920Y-348500D01*
X482140Y-350620D01*
X482180Y-353420D01*
X481900Y-360360D01*
X481599Y-365080D01*
X481460Y-366160D01*
X480340Y-368280D01*
X478340Y-369460D01*
X476040Y-369540D01*
X473980Y-368380D01*
X473280Y-367440D01*
X472920Y-365959D01*
X472800Y-363100D01*
X472860Y-352980D01*
X472740Y-350000D01*
X472360Y-348280D01*
X471680Y-346920D01*
X470240Y-345240D01*
X468360Y-343880D01*
X466200Y-342980D01*
X464020Y-342660D01*
X462100Y-342860D01*
X460360Y-343400D01*
X458800Y-344260D01*
X457420Y-345379D01*
X456280Y-346719D01*
X455379Y-348220D01*
X454760Y-349840D01*
X454420Y-351540D01*
X454400Y-353260D01*
X454720Y-354960D01*
X455400Y-356580D01*
X456460Y-358100D01*
X457800Y-359400D01*
X459280Y-360360D01*
X461079Y-361019D01*
X463380Y-361520D01*
X465920Y-362500D01*
X467400Y-364240D01*
X467640Y-366440D01*
X466540Y-368780D01*
X465800Y-369580D01*
X464980Y-370020D01*
X463760Y-370220D01*
X461840Y-370260D01*
X459320Y-370060D01*
X456900Y-369460D01*
X454600Y-368480D01*
X452460Y-367160D01*
X450500Y-365540D01*
X448800Y-363620D01*
X447360Y-361440D01*
X446240Y-359040D01*
X445660Y-357180D01*
X445319Y-355260D01*
X445200Y-353320D01*
X439705Y-353320D01*
X439040Y-365080D01*
X438660Y-369500D01*
X438260Y-372340D01*
X437760Y-374200D01*
X437100Y-375700D01*
X435600Y-378080D01*
X433660Y-380280D01*
X431360Y-382160D01*
X428800Y-383660D01*
X426200Y-384600D01*
X423040Y-385340D01*
X420140Y-385740D01*
X418240Y-385640D01*
X416920Y-384940D01*
X415800Y-383900D01*
X415040Y-382680D01*
X414739Y-381460D01*
X415140Y-379620D01*
X416280Y-378160D01*
X418180Y-377120D01*
X423620Y-375880D01*
X425920Y-374940D01*
X427660Y-373700D01*
X428740Y-372220D01*
X429340Y-370620D01*
X429360Y-369780D01*
X428780Y-369680D01*
X427560Y-370280D01*
X425000Y-371180D01*
X421680Y-371440D01*
X418180Y-371060D01*
X415000Y-370060D01*
X412819Y-368840D01*
X410959Y-367360D01*
X409420Y-365620D01*
X408160Y-363600D01*
X407220Y-361280D01*
X406560Y-358680D01*
X406200Y-355760D01*
X406120Y-352520D01*
X400402Y-352520D01*
X399960Y-356520D01*
X399380Y-359340D01*
X398620Y-361760D01*
X397620Y-363860D01*
X396400Y-365660D01*
X394940Y-367280D01*
X392600Y-369140D01*
X390040Y-370400D01*
X387120Y-371140D01*
X383720Y-371380D01*
X381079Y-371260D01*
X378660Y-370920D01*
X376480Y-370300D01*
X374520Y-369440D01*
X372780Y-368320D01*
X371220Y-366920D01*
X369860Y-365260D01*
X368680Y-363300D01*
X367140Y-360400D01*
X346728Y-360400D01*
X348860Y-361740D01*
X351520Y-362480D01*
X358560Y-363280D01*
X360580Y-363960D01*
X361540Y-365200D01*
X361800Y-367160D01*
X361160Y-369560D01*
X359260Y-371100D01*
X356060Y-371820D01*
X351500Y-371740D01*
X347980Y-371180D01*
X344940Y-370160D01*
X342220Y-368600D01*
X339680Y-366460D01*
X338320Y-365000D01*
X337220Y-363579D01*
X336360Y-362060D01*
X335700Y-360400D01*
X335260Y-358500D01*
X334960Y-356260D01*
X334799Y-353640D01*
X334739Y-343220D01*
X331719Y-343220D01*
X329140Y-342960D01*
X327280Y-342140D01*
X326120Y-340820D01*
X325740Y-339020D01*
X310070Y-339020D01*
X310240Y-381820D01*
X312040Y-385620D01*
X313500Y-388260D01*
X315200Y-390680D01*
X317180Y-392860D01*
X319360Y-394780D01*
X321760Y-396420D01*
X324340Y-397780D01*
X327060Y-398820D01*
X330220Y-399560D01*
X338860Y-399799D01*
X356840Y-399980D01*
X381320Y-400100D01*
X435120Y-400140D01*
X472220Y-400060D01*
X493280Y-399900D01*
X506180Y-399700D01*
X508700Y-399580D01*
X509060Y-399420D01*
X509360Y-398940D01*
X509600Y-397740D01*
X509760Y-395439D01*
X509920Y-385740D01*
X509940Y-341940D01*
X509860Y-327580D01*
X509580Y-320540D01*
X509340Y-318640D01*
X509020Y-317260D01*
X508100Y-314620D01*
X507200Y-312680D01*
X506100Y-310860D01*
X504840Y-309140D01*
X503440Y-307540D01*
X501880Y-306060D01*
X500200Y-304720D01*
X498400Y-303520D01*
X496500Y-302480D01*
X494520Y-301600D01*
X492440Y-300920D01*
X490080Y-300380D01*
X483220Y-300160D01*
X467780Y-300000D01*
X444200Y-299900D01*
G37*
G36*
X1699199Y-342140D02*
G01*
X1696980Y-342200D01*
X1694780Y-342440D01*
X1692600Y-342879D01*
X1690440Y-343540D01*
X1687300Y-344799D01*
X1684580Y-346260D01*
X1682200Y-347939D01*
X1679000Y-350959D01*
X1678000Y-351580D01*
X1676800Y-351860D01*
X1672440Y-352080D01*
X1669940Y-352560D01*
X1667580Y-353320D01*
X1665340Y-354360D01*
X1663260Y-355640D01*
X1661380Y-357160D01*
X1659700Y-358880D01*
X1658240Y-360800D01*
X1657040Y-362879D01*
X1656100Y-365120D01*
X1655460Y-367500D01*
X1655120Y-369980D01*
X1655100Y-372100D01*
X1655340Y-374200D01*
X1655800Y-376240D01*
X1656480Y-378220D01*
X1657360Y-380100D01*
X1658440Y-381860D01*
X1659700Y-383519D01*
X1661140Y-385000D01*
X1662578Y-386220D01*
X1677100Y-386220D01*
X1678020Y-383540D01*
X1680220Y-381920D01*
X1683000Y-381659D01*
X1685620Y-383020D01*
X1686660Y-384540D01*
X1687000Y-386200D01*
X1686660Y-387860D01*
X1685620Y-389360D01*
X1683000Y-390760D01*
X1680220Y-390520D01*
X1678000Y-388920D01*
X1677100Y-386220D01*
X1662578Y-386220D01*
X1664440Y-387480D01*
X1666300Y-388440D01*
X1669120Y-389440D01*
X1670280Y-390060D01*
X1670440Y-390300D01*
X1670940Y-391620D01*
X1672200Y-393280D01*
X1673920Y-394940D01*
X1675780Y-396240D01*
X1677760Y-397120D01*
X1679780Y-397660D01*
X1681780Y-397860D01*
X1683779Y-397740D01*
X1685680Y-397320D01*
X1687500Y-396599D01*
X1689160Y-395640D01*
X1690660Y-394400D01*
X1691940Y-392939D01*
X1693000Y-391280D01*
X1693760Y-389400D01*
X1694220Y-387340D01*
X1694560Y-384680D01*
X1706380Y-378780D01*
X1710920Y-376280D01*
X1711579Y-375780D01*
X1711180Y-374880D01*
X1709199Y-371460D01*
X1708440Y-370300D01*
X1705880Y-371420D01*
X1695600Y-376420D01*
X1692920Y-377580D01*
X1691399Y-377980D01*
X1690580Y-377760D01*
X1687980Y-376220D01*
X1685380Y-375180D01*
X1682800Y-374660D01*
X1680300Y-374680D01*
X1677920Y-375180D01*
X1675700Y-376200D01*
X1673680Y-377720D01*
X1671180Y-380660D01*
X1669940Y-381960D01*
X1669580Y-382160D01*
X1668320Y-381599D01*
X1666579Y-380160D01*
X1664820Y-378280D01*
X1663560Y-376440D01*
X1662840Y-374560D01*
X1662460Y-372540D01*
X1662440Y-370480D01*
X1662740Y-368440D01*
X1663380Y-366460D01*
X1664300Y-364640D01*
X1665520Y-363020D01*
X1667020Y-361700D01*
X1669740Y-360120D01*
X1672680Y-359219D01*
X1675700Y-358980D01*
X1678680Y-359440D01*
X1681759Y-360300D01*
X1682380Y-358940D01*
X1683839Y-356760D01*
X1686100Y-354360D01*
X1688700Y-352200D01*
X1691180Y-350700D01*
X1692840Y-350040D01*
X1694500Y-349640D01*
X1696399Y-349420D01*
X1698800Y-349360D01*
X1701399Y-349420D01*
X1703320Y-349680D01*
X1705100Y-350280D01*
X1707320Y-351340D01*
X1710300Y-353160D01*
X1712600Y-355220D01*
X1714340Y-357660D01*
X1715620Y-360600D01*
X1716240Y-362280D01*
X1716860Y-363280D01*
X1717740Y-363840D01*
X1721399Y-364940D01*
X1723040Y-365700D01*
X1724340Y-366700D01*
X1725560Y-368100D01*
X1727100Y-370980D01*
X1727520Y-373980D01*
X1726879Y-376960D01*
X1725140Y-379720D01*
X1723280Y-381480D01*
X1721180Y-382580D01*
X1718540Y-383180D01*
X1712660Y-383380D01*
X1711080Y-383560D01*
X1710060Y-383900D01*
X1709300Y-384480D01*
X1708480Y-385660D01*
X1708200Y-386960D01*
X1708460Y-388220D01*
X1709280Y-389320D01*
X1710060Y-389840D01*
X1711279Y-390100D01*
X1713320Y-390180D01*
X1719840Y-389920D01*
X1722140Y-389620D01*
X1723880Y-389140D01*
X1725580Y-388360D01*
X1727980Y-386860D01*
X1730080Y-385060D01*
X1731860Y-382939D01*
X1733340Y-380480D01*
X1734400Y-377320D01*
X1734760Y-373620D01*
X1734440Y-369980D01*
X1733420Y-366920D01*
X1731860Y-364380D01*
X1730100Y-362280D01*
X1728120Y-360600D01*
X1724340Y-358459D01*
X1723160Y-357560D01*
X1722180Y-356400D01*
X1719960Y-352939D01*
X1718600Y-351200D01*
X1717100Y-349580D01*
X1715460Y-348120D01*
X1713700Y-346800D01*
X1711819Y-345640D01*
X1709860Y-344620D01*
X1707840Y-343780D01*
X1705740Y-343100D01*
X1703580Y-342600D01*
X1701399Y-342280D01*
G37*
G36*
X1768740Y-345620D02*
G01*
X1768020Y-350200D01*
X1750580Y-350200D01*
X1750220Y-352840D01*
X1750380Y-354200D01*
X1750580Y-354620D01*
X1751100Y-354780D01*
X1754120Y-355040D01*
X1765500Y-355340D01*
X1775580Y-355360D01*
X1781579Y-355260D01*
X1786080Y-355080D01*
X1788320Y-354820D01*
X1789400Y-354200D01*
X1790020Y-353360D01*
X1790180Y-352380D01*
X1789840Y-351300D01*
X1789300Y-350700D01*
X1788100Y-350360D01*
X1785620Y-350220D01*
X1773280Y-350200D01*
X1774019Y-345620D01*
G37*
G36*
X1810620Y-346360D02*
G01*
X1808480Y-346420D01*
X1806759Y-346560D01*
X1805700Y-346740D01*
X1804280Y-347340D01*
X1803160Y-348020D01*
X1801500Y-350060D01*
X1799160Y-353560D01*
X1797060Y-357060D01*
X1796160Y-359040D01*
X1796279Y-359460D01*
X1796720Y-359720D01*
X1797480Y-359860D01*
X1801140Y-359920D01*
X1806240Y-351620D01*
X1813120Y-351400D01*
X1815780Y-351400D01*
X1816180Y-351460D01*
X1818300Y-357920D01*
X1818920Y-359140D01*
X1819720Y-359640D01*
X1821879Y-359840D01*
X1822700Y-359780D01*
X1823340Y-359640D01*
X1823720Y-359420D01*
X1823680Y-357600D01*
X1822720Y-354180D01*
X1821300Y-350540D01*
X1819880Y-348040D01*
X1819019Y-347200D01*
X1817940Y-346719D01*
X1816080Y-346500D01*
G37*
G36*
X1886699Y-346760D02*
G01*
X1881903Y-380060D01*
X1889880Y-380060D01*
X1890380Y-375740D01*
X1893300Y-354000D01*
X1894319Y-353780D01*
X1896800Y-353900D01*
X1899820Y-354300D01*
X1902440Y-354880D01*
X1904240Y-355640D01*
X1905860Y-356800D01*
X1907280Y-358260D01*
X1908460Y-360000D01*
X1909360Y-361920D01*
X1909980Y-364000D01*
X1910240Y-366160D01*
X1910120Y-368320D01*
X1909740Y-370360D01*
X1909180Y-372220D01*
X1908440Y-373900D01*
X1907520Y-375400D01*
X1906420Y-376719D01*
X1905140Y-377879D01*
X1903680Y-378840D01*
X1902060Y-379640D01*
X1900240Y-380260D01*
X1898260Y-380700D01*
X1896100Y-380959D01*
X1893760Y-381060D01*
X1891759Y-381019D01*
X1890580Y-380880D01*
X1890020Y-380580D01*
X1889880Y-380060D01*
X1881900Y-380080D01*
X1880880Y-386700D01*
X1880560Y-388060D01*
X1896639Y-387600D01*
X1900280Y-387340D01*
X1902760Y-386920D01*
X1904820Y-386260D01*
X1908240Y-384640D01*
X1911040Y-382660D01*
X1913340Y-380140D01*
X1915320Y-376960D01*
X1916519Y-374560D01*
X1917220Y-372620D01*
X1917560Y-370520D01*
X1917760Y-367620D01*
X1917780Y-365400D01*
X1917660Y-363360D01*
X1917380Y-361460D01*
X1916940Y-359700D01*
X1916320Y-358060D01*
X1915520Y-356500D01*
X1914520Y-355000D01*
X1913340Y-353519D01*
X1912080Y-352220D01*
X1910720Y-351079D01*
X1909240Y-350120D01*
X1907620Y-349320D01*
X1905800Y-348660D01*
X1903800Y-348120D01*
X1901560Y-347700D01*
X1896519Y-347140D01*
X1891660Y-346820D01*
G37*
G36*
X1836860Y-346760D02*
G01*
X1832600Y-377320D01*
X1831920Y-380980D01*
X1831360Y-383040D01*
X1831140Y-383480D01*
X1830580Y-383920D01*
X1829820Y-384240D01*
X1828820Y-384420D01*
X1827540Y-384480D01*
X1824860Y-384900D01*
X1823320Y-385940D01*
X1823120Y-387360D01*
X1824460Y-388840D01*
X1825280Y-389260D01*
X1826220Y-389500D01*
X1827360Y-389560D01*
X1828779Y-389440D01*
X1831519Y-388860D01*
X1833680Y-387800D01*
X1835300Y-386300D01*
X1836380Y-384320D01*
X1836819Y-382299D01*
X1838420Y-372540D01*
X1840740Y-356840D01*
X1841879Y-347480D01*
X1841699Y-347180D01*
X1841220Y-346960D01*
X1840440Y-346820D01*
G37*
G36*
X1861300Y-346780D02*
G01*
X1856260Y-346880D01*
X1853180Y-347120D01*
X1852720Y-347280D01*
X1847020Y-387560D01*
X1848000Y-387700D01*
X1854620Y-387879D01*
X1864060Y-387900D01*
X1867620Y-387819D01*
X1870260Y-387660D01*
X1872120Y-387380D01*
X1873340Y-386960D01*
X1874040Y-386380D01*
X1874360Y-385580D01*
X1874440Y-384540D01*
X1874100Y-382700D01*
X1872680Y-381640D01*
X1869500Y-381160D01*
X1863920Y-381060D01*
X1855500Y-381060D01*
X1857380Y-369620D01*
X1870560Y-369600D01*
X1873280Y-369440D01*
X1874720Y-369099D01*
X1875580Y-368480D01*
X1876399Y-367340D01*
X1876639Y-366740D01*
X1876720Y-366200D01*
X1876639Y-365660D01*
X1876399Y-365060D01*
X1876020Y-364440D01*
X1875580Y-363920D01*
X1874740Y-363300D01*
X1873340Y-362960D01*
X1870760Y-362800D01*
X1858320Y-362760D01*
X1859720Y-353620D01*
X1874540Y-353540D01*
X1877820Y-353120D01*
X1879259Y-352200D01*
X1879580Y-350580D01*
X1879440Y-349460D01*
X1879040Y-348600D01*
X1878280Y-347939D01*
X1877100Y-347380D01*
X1876220Y-347200D01*
X1872480Y-346940D01*
X1867100Y-346800D01*
G37*
G36*
X1938040Y-347280D02*
G01*
X1915680Y-386880D01*
X1915920Y-387060D01*
X1917960Y-387299D01*
X1923500Y-387340D01*
X1928260Y-378740D01*
X1945520Y-379060D01*
X1947620Y-387340D01*
X1954920Y-387340D01*
X1949780Y-367700D01*
X1949480Y-366800D01*
X1948540Y-366800D01*
X1947020Y-367680D01*
X1945460Y-369060D01*
X1943380Y-372040D01*
X1942080Y-373200D01*
X1940540Y-373960D01*
X1938860Y-374360D01*
X1937120Y-374340D01*
X1935440Y-373940D01*
X1933860Y-373100D01*
X1932480Y-371860D01*
X1931220Y-369739D01*
X1930940Y-367580D01*
X1931600Y-365400D01*
X1933240Y-363280D01*
X1934420Y-362180D01*
X1935420Y-361500D01*
X1936420Y-361160D01*
X1937560Y-361060D01*
X1939360Y-361220D01*
X1941420Y-361860D01*
X1942220Y-361800D01*
X1943280Y-361440D01*
X1945840Y-360180D01*
X1947360Y-359180D01*
X1947580Y-358900D01*
X1944400Y-347620D01*
G37*
G36*
X1828360Y-350760D02*
G01*
X1825620Y-369300D01*
X1825060Y-373780D01*
X1824760Y-376980D01*
X1824740Y-378480D01*
X1825360Y-379260D01*
X1826380Y-379720D01*
X1827560Y-379799D01*
X1828660Y-379400D01*
X1829120Y-378380D01*
X1829720Y-375800D01*
X1830480Y-371700D01*
X1833260Y-353560D01*
X1833540Y-351360D01*
X1833260Y-350959D01*
X1832480Y-350800D01*
G37*
G36*
X1780220Y-357060D02*
G01*
X1777980Y-364540D01*
X1773600Y-377900D01*
X1773000Y-380120D01*
X1772980Y-381300D01*
X1773420Y-382000D01*
X1773920Y-382360D01*
X1774480Y-382600D01*
X1775100Y-382660D01*
X1775760Y-382560D01*
X1776540Y-382200D01*
X1777260Y-381420D01*
X1778000Y-380080D01*
X1778899Y-378060D01*
X1780560Y-373459D01*
X1782680Y-366860D01*
X1784520Y-360740D01*
X1785300Y-357540D01*
X1785100Y-357360D01*
X1784560Y-357200D01*
X1782760Y-357060D01*
G37*
G36*
X1754420Y-357620D02*
G01*
X1754940Y-361360D01*
X1756860Y-377299D01*
X1757520Y-380500D01*
X1758380Y-381880D01*
X1759660Y-382180D01*
X1761000Y-381840D01*
X1761639Y-380300D01*
X1761639Y-376880D01*
X1760620Y-366220D01*
X1759920Y-360420D01*
X1759580Y-358920D01*
X1759180Y-358060D01*
X1758640Y-357700D01*
X1757920Y-357620D01*
G37*
G36*
X1810500Y-362239D02*
G01*
X1804600Y-362440D01*
X1802460Y-362620D01*
X1801300Y-362840D01*
X1799640Y-363880D01*
X1798340Y-365920D01*
X1797200Y-369500D01*
X1795960Y-375120D01*
X1794900Y-380959D01*
X1794680Y-384480D01*
X1795320Y-386599D01*
X1796920Y-388140D01*
X1798040Y-388780D01*
X1799740Y-389180D01*
X1802720Y-389380D01*
X1812360Y-389580D01*
X1815360Y-389500D01*
X1817140Y-389240D01*
X1818200Y-388800D01*
X1819139Y-387819D01*
X1819560Y-386620D01*
X1819420Y-385520D01*
X1818680Y-384820D01*
X1815460Y-384580D01*
X1802640Y-384320D01*
X1800680Y-384140D01*
X1799880Y-383940D01*
X1799840Y-383000D01*
X1800520Y-378400D01*
X1801680Y-372500D01*
X1802820Y-368040D01*
X1803220Y-367200D01*
X1803959Y-367040D01*
X1807620Y-366820D01*
X1816279Y-366760D01*
X1815360Y-372340D01*
X1814680Y-373940D01*
X1813540Y-374620D01*
X1808480Y-375060D01*
X1806420Y-375860D01*
X1805560Y-377160D01*
X1805920Y-378860D01*
X1806399Y-379480D01*
X1807240Y-379799D01*
X1808860Y-379900D01*
X1811620Y-379820D01*
X1815400Y-379500D01*
X1817700Y-378500D01*
X1819180Y-376340D01*
X1820480Y-372420D01*
X1821320Y-368940D01*
X1821500Y-366480D01*
X1820980Y-364700D01*
X1819760Y-363340D01*
X1818740Y-362740D01*
X1817260Y-362400D01*
X1814700Y-362260D01*
G37*
G36*
X1938300Y-365760D02*
G01*
X1937100Y-365880D01*
X1936140Y-366500D01*
X1935760Y-367320D01*
X1935860Y-368180D01*
X1936440Y-369040D01*
X1937480Y-369860D01*
X1938640Y-369980D01*
X1939780Y-369240D01*
X1940500Y-368080D01*
X1940380Y-366900D01*
X1939500Y-366120D01*
G37*
G36*
X1762360Y-384480D02*
G01*
X1749400Y-384660D01*
X1746180Y-384780D01*
X1745680Y-384860D01*
X1745300Y-385840D01*
X1745320Y-387239D01*
X1745620Y-388540D01*
X1746200Y-389280D01*
X1748200Y-389420D01*
X1758959Y-389600D01*
X1779500Y-389520D01*
X1784139Y-389420D01*
X1786300Y-389260D01*
X1787300Y-388640D01*
X1787900Y-387600D01*
X1788020Y-386400D01*
X1787580Y-385340D01*
X1787220Y-385080D01*
X1786459Y-384900D01*
X1785220Y-384739D01*
X1780620Y-384560D01*
G37*
D46*
X215399Y-450000D02*
G01*
X177199Y-450000D01*
X215399Y-450000D02*
G01*
X215399Y-466399D01*
X213499Y-471799D01*
X211700Y-473600D01*
X208099Y-475500D01*
X204499Y-475500D01*
X200799Y-473600D01*
X199000Y-471799D01*
X197199Y-466399D01*
X197199Y-450000D01*
X197199Y-462699D02*
G01*
X177199Y-475500D01*
X209899Y-512899D02*
G01*
X213499Y-509299D01*
X215399Y-503800D01*
X215399Y-496500D01*
X213499Y-491100D01*
X209899Y-487500D01*
X206300Y-487500D01*
X202600Y-489299D01*
X200799Y-491100D01*
X199000Y-494699D01*
X195399Y-505599D01*
X193499Y-509299D01*
X191700Y-511100D01*
X188099Y-512899D01*
X182600Y-512899D01*
X179000Y-509299D01*
X177199Y-503800D01*
X177199Y-496500D01*
X179000Y-491100D01*
X182600Y-487500D01*
X215399Y-537600D02*
G01*
X177199Y-537600D01*
X215399Y-524899D02*
G01*
X215399Y-550399D01*
X1771899Y-745000D02*
G01*
X1770100Y-741399D01*
X1764600Y-735900D01*
X1802799Y-735900D01*
X1764600Y-1014099D02*
G01*
X1766499Y-1019499D01*
X1771899Y-1023200D01*
X1781000Y-1025000D01*
X1786499Y-1025000D01*
X1795500Y-1023200D01*
X1801000Y-1019499D01*
X1802799Y-1014099D01*
X1802799Y-1010500D01*
X1801000Y-1005000D01*
X1795500Y-1001399D01*
X1786499Y-999499D01*
X1781000Y-999499D01*
X1771899Y-1001399D01*
X1766499Y-1005000D01*
X1764600Y-1010500D01*
X1764600Y-1014099D01*
X1764600Y-950799D02*
G01*
X1802799Y-950799D01*
X1782799Y-950799D02*
G01*
X1779200Y-947199D01*
X1777399Y-943499D01*
X1777399Y-938099D01*
X1779200Y-934400D01*
X1782799Y-930799D01*
X1788299Y-929000D01*
X1791899Y-929000D01*
X1797399Y-930799D01*
X1801000Y-934400D01*
X1802799Y-938099D01*
X1802799Y-943499D01*
X1801000Y-947199D01*
X1797399Y-950799D01*
X1777399Y-907899D02*
G01*
X1779200Y-911500D01*
X1782799Y-915199D01*
X1788299Y-916999D01*
X1791899Y-916999D01*
X1797399Y-915199D01*
X1801000Y-911500D01*
X1802799Y-907899D01*
X1802799Y-902399D01*
X1801000Y-898800D01*
X1797399Y-895199D01*
X1791899Y-893299D01*
X1788299Y-893299D01*
X1782799Y-895199D01*
X1779200Y-898800D01*
X1777399Y-902399D01*
X1777399Y-907899D01*
X1777399Y-872300D02*
G01*
X1779200Y-875900D01*
X1782799Y-879499D01*
X1788299Y-881300D01*
X1791899Y-881300D01*
X1797399Y-879499D01*
X1801000Y-875900D01*
X1802799Y-872300D01*
X1802799Y-866799D01*
X1801000Y-863200D01*
X1797399Y-859499D01*
X1791899Y-857699D01*
X1788299Y-857699D01*
X1782799Y-859499D01*
X1779200Y-863200D01*
X1777399Y-866799D01*
X1777399Y-872300D01*
X1764600Y-840300D02*
G01*
X1795500Y-840300D01*
X1801000Y-838400D01*
X1802799Y-834800D01*
X1802799Y-831199D01*
X1777399Y-845700D02*
G01*
X1777399Y-833000D01*
X1764600Y-808299D02*
G01*
X1766499Y-813699D01*
X1771899Y-817300D01*
X1781000Y-819200D01*
X1786499Y-819200D01*
X1795500Y-817300D01*
X1801000Y-813699D01*
X1802799Y-808299D01*
X1802799Y-804600D01*
X1801000Y-799200D01*
X1795500Y-795500D01*
X1786499Y-793699D01*
X1781000Y-793699D01*
X1771899Y-795500D01*
X1766499Y-799200D01*
X1764600Y-804600D01*
X1764600Y-808299D01*
X1765000Y-644600D02*
G01*
X1765000Y-682800D01*
X1765000Y-644600D02*
G01*
X1781400Y-644600D01*
X1786800Y-646500D01*
X1788599Y-648299D01*
X1790500Y-651900D01*
X1790500Y-657399D01*
X1788599Y-660999D01*
X1786800Y-662800D01*
X1781400Y-664600D01*
X1765000Y-664600D01*
X1813400Y-644600D02*
G01*
X1809700Y-646500D01*
X1806099Y-650100D01*
X1804300Y-653699D01*
X1802500Y-659200D01*
X1802500Y-668299D01*
X1804300Y-673699D01*
X1806099Y-677399D01*
X1809700Y-680999D01*
X1813400Y-682800D01*
X1820600Y-682800D01*
X1824300Y-680999D01*
X1827899Y-677399D01*
X1829700Y-673699D01*
X1831499Y-668299D01*
X1831499Y-659200D01*
X1829700Y-653699D01*
X1827899Y-650100D01*
X1824300Y-646500D01*
X1820600Y-644600D01*
X1813400Y-644600D01*
X1843500Y-644600D02*
G01*
X1852600Y-682800D01*
X1861700Y-644600D02*
G01*
X1852600Y-682800D01*
X1861700Y-644600D02*
G01*
X1870799Y-682800D01*
X1879899Y-644600D02*
G01*
X1870799Y-682800D01*
X1891899Y-644600D02*
G01*
X1891899Y-682800D01*
X1891899Y-644600D02*
G01*
X1915500Y-644600D01*
X1891899Y-662800D02*
G01*
X1906499Y-662800D01*
X1891899Y-682800D02*
G01*
X1915500Y-682800D01*
X1927500Y-644600D02*
G01*
X1927500Y-682800D01*
X1927500Y-644600D02*
G01*
X1943900Y-644600D01*
X1949399Y-646500D01*
X1951199Y-648299D01*
X1953000Y-651900D01*
X1953000Y-655500D01*
X1951199Y-659200D01*
X1949399Y-660999D01*
X1943900Y-662800D01*
X1927500Y-662800D01*
X1940299Y-662800D02*
G01*
X1953000Y-682800D01*
D51*
X25500Y-1301500D02*
G01*
X24099Y-1298800D01*
X21399Y-1296100D01*
X18600Y-1294699D01*
X13200Y-1294699D01*
X10500Y-1296100D01*
X7699Y-1298800D01*
X6399Y-1301500D01*
X5000Y-1305599D01*
X5000Y-1312500D01*
X6399Y-1316500D01*
X7699Y-1319299D01*
X10500Y-1321999D01*
X13200Y-1323400D01*
X18600Y-1323400D01*
X21399Y-1321999D01*
X24099Y-1319299D01*
X25500Y-1316500D01*
X34499Y-1294699D02*
G01*
X34499Y-1323400D01*
X53499Y-1294699D02*
G01*
X53499Y-1323400D01*
X34499Y-1308400D02*
G01*
X53499Y-1308400D01*
X73499Y-1294699D02*
G01*
X62500Y-1323400D01*
X73499Y-1294699D02*
G01*
X84400Y-1323400D01*
X66599Y-1313800D02*
G01*
X80300Y-1313800D01*
X93400Y-1294699D02*
G01*
X93400Y-1323400D01*
X93400Y-1294699D02*
G01*
X105599Y-1294699D01*
X109699Y-1296100D01*
X111100Y-1297500D01*
X112500Y-1300199D01*
X112500Y-1302899D01*
X111100Y-1305599D01*
X109699Y-1306999D01*
X105599Y-1308400D01*
X93400Y-1308400D01*
X102899Y-1308400D02*
G01*
X112500Y-1323400D01*
X141900Y-1301500D02*
G01*
X140500Y-1298800D01*
X137800Y-1296100D01*
X135100Y-1294699D01*
X129600Y-1294699D01*
X126900Y-1296100D01*
X124200Y-1298800D01*
X122800Y-1301500D01*
X121500Y-1305599D01*
X121500Y-1312500D01*
X122800Y-1316500D01*
X124200Y-1319299D01*
X126900Y-1321999D01*
X129600Y-1323400D01*
X135100Y-1323400D01*
X137800Y-1321999D01*
X140500Y-1319299D01*
X141900Y-1316500D01*
X141900Y-1312500D01*
X135100Y-1312500D02*
G01*
X141900Y-1312500D01*
X150900Y-1294699D02*
G01*
X150900Y-1323400D01*
X159899Y-1294699D02*
G01*
X159899Y-1323400D01*
X159899Y-1294699D02*
G01*
X179000Y-1323400D01*
X179000Y-1294699D02*
G01*
X179000Y-1323400D01*
X208499Y-1301500D02*
G01*
X207100Y-1298800D01*
X204400Y-1296100D01*
X201599Y-1294699D01*
X196199Y-1294699D01*
X193499Y-1296100D01*
X190700Y-1298800D01*
X189400Y-1301500D01*
X188000Y-1305599D01*
X188000Y-1312500D01*
X189400Y-1316500D01*
X190700Y-1319299D01*
X193499Y-1321999D01*
X196199Y-1323400D01*
X201599Y-1323400D01*
X204400Y-1321999D01*
X207100Y-1319299D01*
X208499Y-1316500D01*
X208499Y-1312500D01*
X201599Y-1312500D02*
G01*
X208499Y-1312500D01*
D46*
X1515000Y-24600D02*
G01*
X1515000Y-67500D01*
X1515000Y-24600D02*
G01*
X1533400Y-24600D01*
X1539499Y-26599D01*
X1541599Y-28699D01*
X1543599Y-32800D01*
X1543599Y-36900D01*
X1541599Y-40999D01*
X1539499Y-43000D01*
X1533400Y-45000D01*
X1515000Y-45000D02*
G01*
X1533400Y-45000D01*
X1539499Y-47100D01*
X1541599Y-49099D01*
X1543599Y-53200D01*
X1543599Y-59400D01*
X1541599Y-63499D01*
X1539499Y-65500D01*
X1533400Y-67500D01*
X1515000Y-67500D01*
X1557100Y-24600D02*
G01*
X1557100Y-55300D01*
X1559200Y-61399D01*
X1563299Y-65500D01*
X1569399Y-67500D01*
X1573500Y-67500D01*
X1579600Y-65500D01*
X1583699Y-61399D01*
X1585799Y-55300D01*
X1585799Y-24600D01*
X1627899Y-24600D02*
G01*
X1599300Y-67500D01*
X1599300Y-24600D02*
G01*
X1627899Y-24600D01*
X1599300Y-67500D02*
G01*
X1627899Y-67500D01*
X1670000Y-24600D02*
G01*
X1641400Y-67500D01*
X1641400Y-24600D02*
G01*
X1670000Y-24600D01*
X1641400Y-67500D02*
G01*
X1670000Y-67500D01*
X1683500Y-24600D02*
G01*
X1683500Y-67500D01*
X1683500Y-24600D02*
G01*
X1710100Y-24600D01*
X1683500Y-45000D02*
G01*
X1699899Y-45000D01*
X1683500Y-67500D02*
G01*
X1710100Y-67500D01*
X1723599Y-24600D02*
G01*
X1723599Y-67500D01*
X1723599Y-24600D02*
G01*
X1741999Y-24600D01*
X1748199Y-26599D01*
X1750200Y-28699D01*
X1752299Y-32800D01*
X1752299Y-36900D01*
X1750200Y-40999D01*
X1748199Y-43000D01*
X1741999Y-45000D01*
X1723599Y-45000D01*
X1738000Y-45000D02*
G01*
X1752299Y-67500D01*
X955000Y-1254600D02*
G01*
X955000Y-1285300D01*
X956999Y-1291399D01*
X961099Y-1295500D01*
X967299Y-1297500D01*
X971400Y-1297500D01*
X977500Y-1295500D01*
X981599Y-1291399D01*
X983599Y-1285300D01*
X983599Y-1254600D01*
X997100Y-1262800D02*
G01*
X1001199Y-1260700D01*
X1007399Y-1254600D01*
X1007399Y-1297500D01*
D49*
X770020Y-564239D02*
G01*
X788220Y-640639D01*
X806319Y-564239D02*
G01*
X788220Y-640639D01*
X806319Y-564239D02*
G01*
X824520Y-640639D01*
X842719Y-564239D02*
G01*
X824520Y-640639D01*
X866719Y-564239D02*
G01*
X866719Y-640639D01*
X866719Y-564239D02*
G01*
X899420Y-564239D01*
X910320Y-567939D01*
X914020Y-571540D01*
X917619Y-578840D01*
X917619Y-586039D01*
X914020Y-593339D01*
X910320Y-597040D01*
X899420Y-600639D01*
X866719Y-600639D02*
G01*
X899420Y-600639D01*
X910320Y-604239D01*
X914020Y-607939D01*
X917619Y-615140D01*
X917619Y-626039D01*
X914020Y-633339D01*
X910320Y-637040D01*
X899420Y-640639D01*
X866719Y-640639D01*
X948919Y-564239D02*
G01*
X988919Y-564239D01*
X967120Y-593339D01*
X978019Y-593339D01*
X985320Y-597040D01*
X988919Y-600639D01*
X992520Y-611540D01*
X992520Y-618840D01*
X988919Y-629740D01*
X981620Y-637040D01*
X970720Y-640639D01*
X959819Y-640639D01*
X948919Y-637040D01*
X945320Y-633339D01*
X941620Y-626039D01*
X1067420Y-575140D02*
G01*
X1060219Y-567939D01*
X1049319Y-564239D01*
X1034719Y-564239D01*
X1023819Y-567939D01*
X1016520Y-575140D01*
X1016520Y-582440D01*
X1020219Y-589740D01*
X1023819Y-593339D01*
X1031120Y-597040D01*
X1052920Y-604239D01*
X1060219Y-607939D01*
X1063819Y-611540D01*
X1067420Y-618840D01*
X1067420Y-629740D01*
X1060219Y-637040D01*
X1049319Y-640639D01*
X1034719Y-640639D01*
X1023819Y-637040D01*
X1016520Y-629740D01*
G36*
X1746000Y-550120D02*
G01*
X1746000Y-619900D01*
X1752000Y-619900D01*
X1752000Y-550120D01*
G37*
G36*
X238000Y-800100D02*
G01*
X238000Y-869880D01*
X244000Y-869880D01*
X244000Y-800100D01*
G37*
G36*
X203000Y-1210100D02*
G01*
X203000Y-1279880D01*
X209000Y-1279880D01*
X209000Y-1210100D01*
G37*
G36*
X238000Y-705100D02*
G01*
X238000Y-774880D01*
X244000Y-774880D01*
X244000Y-705100D01*
G37*
G36*
X372360Y-1270480D02*
G01*
X372360Y-1282100D01*
X384360Y-1282100D01*
X384360Y-1270480D01*
G37*
G36*
X372360Y-1207900D02*
G01*
X372360Y-1219520D01*
X384360Y-1219520D01*
X384360Y-1207900D01*
G37*
G36*
X890480Y-1635640D02*
G01*
X890480Y-1647640D01*
X902099Y-1647640D01*
X902099Y-1635640D01*
G37*
G36*
X827900Y-1635640D02*
G01*
X827900Y-1647640D01*
X839520Y-1647640D01*
X839520Y-1635640D01*
G37*
D46*
X1398894Y-578748D02*
G01*
X1398894Y-629335D01*
X1471105Y-629335D01*
X1471105Y-578748D01*
X1398894Y-541251D02*
G01*
X1398894Y-490664D01*
X1471105Y-490664D01*
X1471105Y-541251D01*
X1574490Y-499520D02*
G01*
X1505498Y-499520D01*
X1505498Y-540527D01*
X1574490Y-620479D02*
G01*
X1505498Y-620479D01*
X1505498Y-579472D01*
X1574490Y-542071D02*
G01*
X1574490Y-577928D01*
D10*
X1630817Y-236105D02*
G01*
X1609605Y-257319D01*
X1634354Y-260853D02*
G01*
X1609605Y-236105D01*
D46*
X1836252Y-463894D02*
G01*
X1785663Y-463894D01*
X1785663Y-536105D01*
X1836252Y-536105D01*
X1873747Y-463894D02*
G01*
X1924336Y-463894D01*
X1924336Y-536105D01*
X1873747Y-536105D01*
X1887529Y-625891D02*
G01*
X1951994Y-625891D01*
X1951994Y-544108D01*
X1887529Y-544108D01*
X1822475Y-625891D02*
G01*
X1764011Y-625891D01*
X1758010Y-619890D01*
X1758010Y-550109D01*
X1764011Y-544108D01*
X1822475Y-544108D01*
X1516409Y-1630086D02*
G01*
X1573590Y-1630086D01*
X1573590Y-1589472D01*
X1516409Y-1509913D02*
G01*
X1573590Y-1509913D01*
X1573590Y-1550527D01*
X1516409Y-1587928D02*
G01*
X1516409Y-1552071D01*
X102471Y-794108D02*
G01*
X38006Y-794108D01*
X38006Y-875891D01*
X102471Y-875891D01*
X167525Y-794108D02*
G01*
X225988Y-794108D01*
X231990Y-800109D01*
X231990Y-869890D01*
X225988Y-875891D01*
X167525Y-875891D01*
D47*
X1116499Y-1165999D02*
G01*
X1116499Y-1410000D01*
X854499Y-1410000D01*
X854499Y-1149000D01*
X1116499Y-1149000D01*
X1116499Y-1179000D01*
D46*
X440999Y-1510999D02*
G01*
X440999Y-1481894D01*
X440999Y-1481999D02*
G01*
X480000Y-1481999D01*
X480000Y-1481999D02*
G01*
X480000Y-1510999D01*
X440000Y-1548000D02*
G01*
X440000Y-1519000D01*
X479000Y-1519000D02*
G01*
X479000Y-1548105D01*
X479000Y-1548000D02*
G01*
X440000Y-1548000D01*
X330999Y-1734000D02*
G01*
X301894Y-1734000D01*
X301999Y-1734000D02*
G01*
X301999Y-1695000D01*
X301999Y-1695000D02*
G01*
X330999Y-1695000D01*
X368000Y-1735000D02*
G01*
X339000Y-1735000D01*
X339000Y-1695999D02*
G01*
X368105Y-1695999D01*
X368000Y-1695999D02*
G01*
X368000Y-1735000D01*
X1146000Y-1474000D02*
G01*
X1116894Y-1474000D01*
X1116999Y-1474000D02*
G01*
X1116999Y-1435000D01*
X1116999Y-1435000D02*
G01*
X1146000Y-1435000D01*
X1183000Y-1475000D02*
G01*
X1153999Y-1475000D01*
X1153999Y-1435999D02*
G01*
X1183105Y-1435999D01*
X1183000Y-1435999D02*
G01*
X1183000Y-1475000D01*
X525999Y-814000D02*
G01*
X496894Y-814000D01*
X496999Y-814000D02*
G01*
X496999Y-775000D01*
X496999Y-775000D02*
G01*
X525999Y-775000D01*
X563000Y-815000D02*
G01*
X534000Y-815000D01*
X534000Y-775999D02*
G01*
X563105Y-775999D01*
X563000Y-775999D02*
G01*
X563000Y-815000D01*
X67471Y-1204108D02*
G01*
X3006Y-1204108D01*
X3006Y-1285891D01*
X67471Y-1285891D01*
X132525Y-1204108D02*
G01*
X190988Y-1204108D01*
X196990Y-1210109D01*
X196990Y-1279890D01*
X190988Y-1285891D01*
X132525Y-1285891D01*
D10*
X768622Y-1134960D02*
G01*
X721377Y-1134960D01*
X776496Y-1054252D02*
G01*
X776496Y-1014881D01*
X713503Y-1054252D02*
G01*
X713503Y-1014881D01*
X776496Y-1085752D02*
G01*
X776496Y-1125118D01*
X713503Y-1085752D02*
G01*
X713503Y-1125118D01*
X768622Y-1005039D02*
G01*
X721377Y-1005039D01*
X776496Y-1012912D02*
G01*
X776496Y-1014881D01*
X713503Y-1012914D02*
G01*
X713503Y-1014881D01*
X776496Y-1127087D02*
G01*
X776496Y-1125118D01*
X713503Y-1127085D02*
G01*
X713503Y-1125118D01*
X843625Y-1134960D02*
G01*
X796379Y-1134960D01*
X851499Y-1054252D02*
G01*
X851499Y-1014881D01*
X788504Y-1054252D02*
G01*
X788504Y-1014881D01*
X851499Y-1085752D02*
G01*
X851499Y-1125118D01*
X788504Y-1085752D02*
G01*
X788504Y-1125118D01*
X843625Y-1005039D02*
G01*
X796379Y-1005039D01*
X851499Y-1012912D02*
G01*
X851499Y-1014881D01*
X788504Y-1012914D02*
G01*
X788504Y-1014881D01*
X851499Y-1127087D02*
G01*
X851499Y-1125118D01*
X788504Y-1127085D02*
G01*
X788504Y-1125118D01*
X796377Y-1425039D02*
G01*
X843621Y-1425039D01*
X788503Y-1505747D02*
G01*
X788503Y-1545118D01*
X851496Y-1505747D02*
G01*
X851496Y-1545118D01*
X788503Y-1474247D02*
G01*
X788503Y-1434881D01*
X851496Y-1474247D02*
G01*
X851496Y-1434881D01*
X796377Y-1554960D02*
G01*
X843621Y-1554960D01*
X788503Y-1547087D02*
G01*
X788503Y-1545118D01*
X851496Y-1547085D02*
G01*
X851496Y-1545118D01*
X788503Y-1432912D02*
G01*
X788503Y-1434881D01*
X851496Y-1432914D02*
G01*
X851496Y-1434881D01*
X721377Y-1425039D02*
G01*
X768621Y-1425039D01*
X713503Y-1505747D02*
G01*
X713503Y-1545118D01*
X776496Y-1505747D02*
G01*
X776496Y-1545118D01*
X713503Y-1474247D02*
G01*
X713503Y-1434881D01*
X776496Y-1474247D02*
G01*
X776496Y-1434881D01*
X721377Y-1554960D02*
G01*
X768621Y-1554960D01*
X713503Y-1547087D02*
G01*
X713503Y-1545118D01*
X776496Y-1547085D02*
G01*
X776496Y-1545118D01*
X713503Y-1432912D02*
G01*
X713503Y-1434881D01*
X776496Y-1432914D02*
G01*
X776496Y-1434881D01*
D46*
X102471Y-699108D02*
G01*
X38006Y-699108D01*
X38006Y-780891D01*
X102471Y-780891D01*
X167525Y-699108D02*
G01*
X225988Y-699108D01*
X231990Y-705109D01*
X231990Y-774890D01*
X225988Y-780891D01*
X167525Y-780891D01*
D10*
X330000Y-1385000D02*
G01*
X375000Y-1385000D01*
X380000Y-1385000D01*
X390000Y-1375000D01*
X390000Y-1320000D01*
X390000Y-1315000D01*
X380000Y-1305000D01*
X330000Y-1305000D01*
X300000Y-1305000D02*
G01*
X255000Y-1305000D01*
X250000Y-1305000D01*
X240000Y-1315000D01*
X240000Y-1370000D01*
X240000Y-1375000D01*
X250000Y-1385000D01*
X300000Y-1385000D01*
X308976Y-1554562D02*
G01*
X308976Y-1625428D01*
X354252Y-1554562D02*
G01*
X385749Y-1554562D01*
X431024Y-1554562D02*
G01*
X431024Y-1625428D01*
D46*
X1265070Y-1483015D02*
G01*
X1323535Y-1483015D01*
X1323535Y-1396984D02*
G01*
X1265070Y-1396984D01*
X1259071Y-1402984D02*
G01*
X1259071Y-1477015D01*
X1454929Y-1483015D02*
G01*
X1396464Y-1483015D01*
X1396464Y-1396984D02*
G01*
X1454929Y-1396984D01*
X1460928Y-1402984D02*
G01*
X1460928Y-1477015D01*
X1085070Y-1055455D02*
G01*
X1143535Y-1055455D01*
X1143535Y-969423D02*
G01*
X1085070Y-969423D01*
X1079071Y-975423D02*
G01*
X1079071Y-1049454D01*
X1274929Y-1055455D02*
G01*
X1216464Y-1055455D01*
X1216464Y-969423D02*
G01*
X1274929Y-969423D01*
X1280928Y-975423D02*
G01*
X1280928Y-1049454D01*
X1289463Y-1766448D02*
G01*
X1289463Y-1824911D01*
X1375496Y-1824911D02*
G01*
X1375496Y-1766448D01*
X1369495Y-1760448D02*
G01*
X1295464Y-1760448D01*
X1289463Y-1956305D02*
G01*
X1289463Y-1897842D01*
X1375496Y-1897842D02*
G01*
X1375496Y-1956305D01*
X1369495Y-1962305D02*
G01*
X1295464Y-1962305D01*
X1574463Y-1766448D02*
G01*
X1574463Y-1824911D01*
X1660496Y-1824911D02*
G01*
X1660496Y-1766448D01*
X1654495Y-1760448D02*
G01*
X1580464Y-1760448D01*
X1574463Y-1956305D02*
G01*
X1574463Y-1897842D01*
X1660496Y-1897842D02*
G01*
X1660496Y-1956305D01*
X1654495Y-1962305D02*
G01*
X1580464Y-1962305D01*
X375362Y-1279101D02*
G01*
X264637Y-1279101D01*
X264637Y-1279101D02*
G01*
X264637Y-1272487D01*
X375362Y-1210898D02*
G01*
X264637Y-1210898D01*
X264637Y-1210898D02*
G01*
X264637Y-1217512D01*
X361311Y-1279101D02*
G01*
X361311Y-1210898D01*
D48*
X528899Y-1304016D02*
G01*
X528899Y-1555983D01*
X671100Y-1555983D02*
G01*
X671100Y-1304014D01*
X508600Y-1555983D02*
G01*
X508600Y-1304014D01*
X691399Y-1304014D02*
G01*
X691399Y-1555983D01*
D46*
X515574Y-1021307D02*
G01*
X515574Y-965794D01*
X444425Y-965794D02*
G01*
X444425Y-1021307D01*
X450425Y-1027307D02*
G01*
X509574Y-1027307D01*
X515574Y-878692D02*
G01*
X515574Y-934205D01*
X444425Y-934205D02*
G01*
X444425Y-878692D01*
X450425Y-872692D02*
G01*
X509574Y-872692D01*
X908693Y-1040574D02*
G01*
X964205Y-1040574D01*
X964205Y-969425D02*
G01*
X908693Y-969425D01*
X902692Y-975425D02*
G01*
X902692Y-1034574D01*
X1051306Y-1040574D02*
G01*
X995794Y-1040574D01*
X995794Y-969425D02*
G01*
X1051306Y-969425D01*
X1057307Y-975425D02*
G01*
X1057307Y-1034574D01*
X396307Y-459425D02*
G01*
X340794Y-459425D01*
X340794Y-530574D02*
G01*
X396307Y-530574D01*
X402307Y-524574D02*
G01*
X402307Y-465425D01*
X253692Y-459425D02*
G01*
X309205Y-459425D01*
X309205Y-530574D02*
G01*
X253692Y-530574D01*
X247692Y-524574D02*
G01*
X247692Y-465425D01*
X444425Y-1048692D02*
G01*
X444425Y-1104205D01*
X515574Y-1104205D02*
G01*
X515574Y-1048692D01*
X509574Y-1042692D02*
G01*
X450425Y-1042692D01*
X444425Y-1191307D02*
G01*
X444425Y-1135794D01*
X515574Y-1135794D02*
G01*
X515574Y-1191307D01*
X509574Y-1197307D02*
G01*
X450425Y-1197307D01*
X1484425Y-1813692D02*
G01*
X1484425Y-1869205D01*
X1555574Y-1869205D02*
G01*
X1555574Y-1813692D01*
X1549575Y-1807692D02*
G01*
X1490424Y-1807692D01*
X1484425Y-1956307D02*
G01*
X1484425Y-1900794D01*
X1555574Y-1900794D02*
G01*
X1555574Y-1956307D01*
X1549575Y-1962307D02*
G01*
X1490424Y-1962307D01*
X560574Y-746307D02*
G01*
X560574Y-690794D01*
X489425Y-690794D02*
G01*
X489425Y-746307D01*
X495425Y-752307D02*
G01*
X554574Y-752307D01*
X560574Y-603692D02*
G01*
X560574Y-659205D01*
X489425Y-659205D02*
G01*
X489425Y-603692D01*
X495425Y-597692D02*
G01*
X554574Y-597692D01*
X1394385Y-1813692D02*
G01*
X1394385Y-1869205D01*
X1465534Y-1869205D02*
G01*
X1465534Y-1813692D01*
X1459534Y-1807692D02*
G01*
X1400384Y-1807692D01*
X1394385Y-1956307D02*
G01*
X1394385Y-1900794D01*
X1465534Y-1900794D02*
G01*
X1465534Y-1956307D01*
X1459534Y-1962307D02*
G01*
X1400384Y-1962307D01*
D10*
X9133Y-612047D02*
G01*
X9133Y-367955D01*
X150868Y-367955D02*
G01*
X150868Y-612047D01*
X130001Y-610001D02*
G01*
X150001Y-590001D01*
X30001Y-610001D02*
G01*
X10001Y-590001D01*
X10001Y-390001D02*
G01*
X30001Y-370001D01*
X150001Y-390001D02*
G01*
X130001Y-370001D01*
X9133Y-367955D02*
G01*
X41372Y-367955D01*
X118627Y-367955D02*
G01*
X150868Y-367955D01*
X9133Y-612047D02*
G01*
X41372Y-612047D01*
X118627Y-612047D02*
G01*
X150868Y-612047D01*
X-30336Y-1652480D02*
G01*
X-30336Y-1337519D01*
X-2386Y-1628460D02*
G01*
X-2386Y-1361930D01*
X-30336Y-1651689D02*
G01*
X-25615Y-1651689D01*
X-2386Y-1628460D01*
X-29546Y-1338699D02*
G01*
X-25615Y-1338699D01*
X-2386Y-1361930D01*
X196033Y-1652480D02*
G01*
X196033Y-1626667D01*
X196033Y-1363332D02*
G01*
X196033Y-1337519D01*
X196033Y-1337519D02*
G01*
X126053Y-1337519D01*
X28827Y-1337519D02*
G01*
X-29546Y-1337519D01*
X196033Y-1652480D02*
G01*
X126053Y-1652480D01*
X28827Y-1652480D02*
G01*
X-30336Y-1652480D01*
X1730000Y-1560000D02*
G01*
X1730000Y-1565000D01*
X1730000Y-470000D01*
X1630000Y-470000D01*
X1630000Y-1565000D01*
X1730000Y-1565000D01*
X650000Y-1000000D02*
G01*
X650000Y-1160000D01*
X560000Y-1160000D01*
X560000Y-1000000D01*
X650000Y-1000000D01*
D46*
X1801000Y-1554000D02*
G01*
X1771894Y-1554000D01*
X1771999Y-1554000D02*
G01*
X1771999Y-1515000D01*
X1771999Y-1515000D02*
G01*
X1801000Y-1515000D01*
X1838000Y-1555000D02*
G01*
X1808999Y-1555000D01*
X1808999Y-1515999D02*
G01*
X1838105Y-1515999D01*
X1838000Y-1515999D02*
G01*
X1838000Y-1555000D01*
D49*
X1788823Y-1218818D02*
G01*
X1891185Y-1218818D01*
X1788823Y-1321181D02*
G01*
X1891185Y-1321181D01*
D46*
X1773693Y-1495574D02*
G01*
X1829205Y-1495574D01*
X1829205Y-1424425D02*
G01*
X1773693Y-1424425D01*
X1767692Y-1430425D02*
G01*
X1767692Y-1489574D01*
X1916306Y-1495574D02*
G01*
X1860794Y-1495574D01*
X1860794Y-1424425D02*
G01*
X1916306Y-1424425D01*
X1922307Y-1430425D02*
G01*
X1922307Y-1489574D01*
D10*
X647638Y-2025587D02*
G01*
X647638Y-1749996D01*
X647638Y-1749996D02*
G01*
X592564Y-1749996D01*
X600000Y-2025000D02*
G01*
X600000Y-1915000D01*
X550000Y-1915000D01*
X550000Y-1970000D01*
X450000Y-1970000D01*
X450000Y-1915000D01*
X400000Y-1915000D01*
X400000Y-2025000D01*
X407433Y-1749996D02*
G01*
X352361Y-1749996D01*
X352361Y-1749996D02*
G01*
X352361Y-2025587D01*
X352361Y-2025587D02*
G01*
X647638Y-2025587D01*
X507433Y-1749996D02*
G01*
X492563Y-1749996D01*
D46*
X30149Y-1107739D02*
G01*
X30149Y-968260D01*
X429850Y-968260D01*
X429850Y-1107739D01*
X30149Y-1107739D01*
X1124520Y-1824704D02*
G01*
X1124520Y-1893696D01*
X1165528Y-1893696D01*
X1245479Y-1824704D02*
G01*
X1245479Y-1893696D01*
X1204471Y-1893696D01*
X1167070Y-1824704D02*
G01*
X1202929Y-1824704D01*
D10*
X869432Y-2042166D02*
G01*
X869432Y-1963425D01*
X810378Y-2042166D02*
G01*
X869432Y-2042166D01*
X810378Y-1963425D02*
G01*
X810378Y-2042166D01*
X1067160Y-1825630D02*
G01*
X1034994Y-1825630D01*
X1034994Y-1837440D01*
X1067160Y-1837440D02*
G01*
X1067160Y-1825630D01*
X712829Y-1825630D02*
G01*
X744994Y-1825630D01*
X744994Y-1837440D01*
X712829Y-1837440D02*
G01*
X712829Y-1825630D01*
X1007848Y-1837440D02*
G01*
X1067160Y-1837440D01*
X909423Y-1837440D02*
G01*
X968991Y-1837440D01*
X810997Y-1837440D02*
G01*
X870565Y-1837440D01*
X712829Y-1837440D02*
G01*
X772141Y-1837440D01*
X1067160Y-1963425D02*
G01*
X1067160Y-1837440D01*
X712829Y-1963425D02*
G01*
X712829Y-1837440D01*
X712829Y-1963425D02*
G01*
X1067160Y-1963425D01*
D46*
X796105Y-1681251D02*
G01*
X796105Y-1630664D01*
X723894Y-1630664D01*
X723894Y-1681251D01*
X796105Y-1718748D02*
G01*
X796105Y-1769335D01*
X723894Y-1769335D01*
X723894Y-1718748D01*
X1863747Y-1186105D02*
G01*
X1914336Y-1186105D01*
X1914336Y-1113894D01*
X1863747Y-1113894D01*
X1826252Y-1186105D02*
G01*
X1775663Y-1186105D01*
X1775663Y-1113894D01*
X1826252Y-1113894D01*
X899102Y-1644638D02*
G01*
X899102Y-1755362D01*
X899102Y-1755362D02*
G01*
X892488Y-1755362D01*
X830897Y-1644638D02*
G01*
X830897Y-1755362D01*
X830897Y-1755362D02*
G01*
X837511Y-1755362D01*
X899102Y-1658688D02*
G01*
X830897Y-1658688D01*
X929520Y-1664704D02*
G01*
X929520Y-1733696D01*
X970528Y-1733696D01*
X1050479Y-1664704D02*
G01*
X1050479Y-1733696D01*
X1009471Y-1733696D01*
X972070Y-1664704D02*
G01*
X1007929Y-1664704D01*
X233991Y-1606779D02*
G01*
X233991Y-1644531D01*
X286008Y-1644531D01*
X286008Y-1606779D01*
X233991Y-1573220D02*
G01*
X233991Y-1535468D01*
X286008Y-1535468D01*
X286008Y-1573220D01*
X333748Y-1481105D02*
G01*
X384335Y-1481105D01*
X384335Y-1408894D01*
X333748Y-1408894D01*
X296251Y-1481105D02*
G01*
X245664Y-1481105D01*
X245664Y-1408894D01*
X296251Y-1408894D01*
X1193894Y-1588748D02*
G01*
X1193894Y-1639335D01*
X1266105Y-1639335D01*
X1266105Y-1588748D01*
X1193894Y-1551251D02*
G01*
X1193894Y-1500664D01*
X1266105Y-1500664D01*
X1266105Y-1551251D01*
X1288894Y-1588748D02*
G01*
X1288894Y-1639335D01*
X1361105Y-1639335D01*
X1361105Y-1588748D01*
X1288894Y-1551251D02*
G01*
X1288894Y-1500664D01*
X1361105Y-1500664D01*
X1361105Y-1551251D01*
X1098894Y-1588748D02*
G01*
X1098894Y-1639335D01*
X1171105Y-1639335D01*
X1171105Y-1588748D01*
X1098894Y-1551251D02*
G01*
X1098894Y-1500664D01*
X1171105Y-1500664D01*
X1171105Y-1551251D01*
X1461105Y-1551251D02*
G01*
X1461105Y-1500664D01*
X1388894Y-1500664D01*
X1388894Y-1551251D01*
X1461105Y-1588748D02*
G01*
X1461105Y-1639335D01*
X1388894Y-1639335D01*
X1388894Y-1588748D01*
X277550Y-552516D02*
G01*
X224011Y-552516D01*
X224011Y-637483D01*
X277550Y-637483D01*
X352449Y-552516D02*
G01*
X405988Y-552516D01*
X405988Y-637483D01*
X352449Y-637483D01*
X306251Y-793894D02*
G01*
X255664Y-793894D01*
X255664Y-866105D01*
X306251Y-866105D01*
X343748Y-793894D02*
G01*
X394335Y-793894D01*
X394335Y-866105D01*
X343748Y-866105D01*
X306251Y-713894D02*
G01*
X255664Y-713894D01*
X255664Y-786105D01*
X306251Y-786105D01*
X343748Y-713894D02*
G01*
X394335Y-713894D01*
X394335Y-786105D01*
X343748Y-786105D01*
X1472551Y-1262516D02*
G01*
X1419011Y-1262516D01*
X1419011Y-1347483D01*
X1472551Y-1347483D01*
X1547448Y-1262516D02*
G01*
X1600988Y-1262516D01*
X1600988Y-1347483D01*
X1547448Y-1347483D01*
X1863747Y-1411105D02*
G01*
X1914336Y-1411105D01*
X1914336Y-1338894D01*
X1863747Y-1338894D01*
X1826252Y-1411105D02*
G01*
X1775663Y-1411105D01*
X1775663Y-1338894D01*
X1826252Y-1338894D01*
X1472551Y-1167516D02*
G01*
X1419011Y-1167516D01*
X1419011Y-1252483D01*
X1472551Y-1252483D01*
X1547448Y-1167516D02*
G01*
X1600988Y-1167516D01*
X1600988Y-1252483D01*
X1547448Y-1252483D01*
D10*
X2047165Y-895567D02*
G01*
X1968424Y-895567D01*
X2047165Y-954621D02*
G01*
X2047165Y-895567D01*
X1968424Y-954621D02*
G01*
X2047165Y-954621D01*
X1830630Y-697838D02*
G01*
X1830630Y-730005D01*
X1842440Y-730005D01*
X1842440Y-697838D02*
G01*
X1830630Y-697838D01*
X1830630Y-1052170D02*
G01*
X1830630Y-1020005D01*
X1842440Y-1020005D01*
X1842440Y-1052170D02*
G01*
X1830630Y-1052170D01*
X1842440Y-757150D02*
G01*
X1842440Y-697838D01*
X1842440Y-855576D02*
G01*
X1842440Y-796008D01*
X1842440Y-954002D02*
G01*
X1842440Y-894434D01*
X1842440Y-1052170D02*
G01*
X1842440Y-992858D01*
X1968424Y-697838D02*
G01*
X1842440Y-697838D01*
X1968424Y-1052170D02*
G01*
X1842440Y-1052170D01*
X1968424Y-1052170D02*
G01*
X1968424Y-697838D01*
X669407Y-196927D02*
G01*
X669407Y-39448D01*
X787518Y-39448D01*
X787518Y-118188D01*
X826887Y-118188D01*
X826887Y-39448D01*
X905628Y-39448D01*
X905628Y-118188D01*
X984368Y-118188D01*
X984368Y-39448D01*
X1220589Y-39448D01*
X1220589Y-196927D01*
X1102887Y-39448D02*
G01*
X1102887Y-196520D01*
X1102479Y-196927D01*
X630037Y-261102D02*
G01*
X1259958Y-261102D01*
X630037Y-326410D02*
G01*
X630037Y-77D01*
X1259958Y-77D01*
X1259958Y-315039D01*
X630037Y-405151D02*
G01*
X630037Y-391855D01*
X630037Y-483890D02*
G01*
X630037Y-470594D01*
X630037Y-562631D02*
G01*
X630037Y-549335D01*
X630037Y-641372D02*
G01*
X630037Y-628074D01*
X630037Y-720111D02*
G01*
X630037Y-706815D01*
X630037Y-798852D02*
G01*
X630037Y-785556D01*
X630037Y-877591D02*
G01*
X630037Y-864295D01*
X1259958Y-943036D02*
G01*
X630037Y-943036D01*
X1259958Y-405151D02*
G01*
X1259958Y-391855D01*
X1259958Y-483890D02*
G01*
X1259958Y-470594D01*
X1259958Y-562631D02*
G01*
X1259958Y-549335D01*
X1259958Y-641372D02*
G01*
X1259958Y-628074D01*
X1259958Y-720111D02*
G01*
X1259958Y-706815D01*
X1259958Y-798852D02*
G01*
X1259958Y-785556D01*
X1259958Y-877591D02*
G01*
X1259958Y-864295D01*
X630037Y-864295D02*
G01*
X630037Y-877591D01*
X630037Y-785556D02*
G01*
X630037Y-798852D01*
X630037Y-706815D02*
G01*
X630037Y-720111D01*
X630037Y-628074D02*
G01*
X630037Y-641372D01*
X630037Y-549335D02*
G01*
X630037Y-562631D01*
X630037Y-470594D02*
G01*
X630037Y-483890D01*
X630037Y-391855D02*
G01*
X630037Y-405151D01*
D50*
G75*
G01*
X889500Y-1176000D02*
G03*
X889500Y-1176100I-7874J-50D01*
D10*
G75*
G01*
X768623Y-1005039D02*
G02*
X776497Y-1012913I0J-7874D01*
G75*
G01*
X721378Y-1005039D02*
G03*
X713503Y-1012914I0J-7875D01*
G75*
G01*
X768623Y-1134961D02*
G03*
X776497Y-1127087I0J7874D01*
G75*
G01*
X721378Y-1134961D02*
G02*
X713503Y-1127086I0J7875D01*
G75*
G01*
X843625Y-1005039D02*
G02*
X851499Y-1012913I0J-7874D01*
G75*
G01*
X796380Y-1005039D02*
G03*
X788505Y-1012914I0J-7875D01*
G75*
G01*
X843625Y-1134961D02*
G03*
X851499Y-1127087I0J7874D01*
G75*
G01*
X796380Y-1134961D02*
G02*
X788505Y-1127086I0J7875D01*
G75*
G01*
X796377Y-1554961D02*
G02*
X788503Y-1547087I0J7874D01*
G75*
G01*
X843622Y-1554961D02*
G03*
X851497Y-1547086I0J7875D01*
G75*
G01*
X796377Y-1425039D02*
G03*
X788503Y-1432913I0J-7874D01*
G75*
G01*
X843622Y-1425039D02*
G02*
X851497Y-1432914I0J-7875D01*
G75*
G01*
X721377Y-1554961D02*
G02*
X713503Y-1547087I0J7874D01*
G75*
G01*
X768622Y-1554961D02*
G03*
X776497Y-1547086I0J7875D01*
G75*
G01*
X721377Y-1425039D02*
G03*
X713503Y-1432913I0J-7874D01*
G75*
G01*
X768622Y-1425039D02*
G02*
X776497Y-1432914I0J-7875D01*
D46*
G75*
G01*
X1265071Y-1396984D02*
G03*
X1259071Y-1402984I0J-6000D01*
G75*
G01*
X1259071Y-1477016D02*
G03*
X1265071Y-1483016I6000J0D01*
G75*
G01*
X1454929Y-1396984D02*
G02*
X1460929Y-1402984I0J-6000D01*
G75*
G01*
X1460929Y-1477016D02*
G02*
X1454929Y-1483016I-6000J0D01*
G75*
G01*
X1085071Y-969423D02*
G03*
X1079071Y-975423I0J-6000D01*
G75*
G01*
X1079071Y-1049455D02*
G03*
X1085071Y-1055455I6000J0D01*
G75*
G01*
X1274929Y-969423D02*
G02*
X1280929Y-975423I0J-6000D01*
G75*
G01*
X1280929Y-1049455D02*
G02*
X1274929Y-1055455I-6000J0D01*
G75*
G01*
X1375496Y-1766448D02*
G03*
X1369496Y-1760448I-6000J0D01*
G75*
G01*
X1295464Y-1760448D02*
G03*
X1289464Y-1766448I0J-6000D01*
G75*
G01*
X1375496Y-1956306D02*
G02*
X1369496Y-1962306I-6000J0D01*
G75*
G01*
X1295464Y-1962306D02*
G02*
X1289464Y-1956306I0J6000D01*
G75*
G01*
X1660496Y-1766448D02*
G03*
X1654496Y-1760448I-6000J0D01*
G75*
G01*
X1580464Y-1760448D02*
G03*
X1574464Y-1766448I0J-6000D01*
G75*
G01*
X1660496Y-1956306D02*
G02*
X1654496Y-1962306I-6000J0D01*
G75*
G01*
X1580464Y-1962306D02*
G02*
X1574464Y-1956306I0J6000D01*
D48*
G75*
G01*
X691399Y-1555984D02*
G02*
X508600Y-1556000I-91400J294D01*
G75*
G01*
X508601Y-1304015D02*
G02*
X691400Y-1304000I91400J-295D01*
G75*
G01*
X671101Y-1555984D02*
G02*
X528900Y-1556000I-71101J259D01*
G75*
G01*
X528899Y-1304016D02*
G02*
X671100Y-1304000I71101J-259D01*
D46*
G75*
G01*
X444425Y-1021307D02*
G03*
X450425Y-1027307I6000J0D01*
G75*
G01*
X509575Y-1027307D02*
G03*
X515575Y-1021307I0J6000D01*
G75*
G01*
X444425Y-878693D02*
G02*
X450425Y-872693I6000J0D01*
G75*
G01*
X509575Y-872693D02*
G02*
X515575Y-878693I0J-6000D01*
G75*
G01*
X908693Y-969425D02*
G03*
X902693Y-975425I0J-6000D01*
G75*
G01*
X902693Y-1034575D02*
G03*
X908693Y-1040575I6000J0D01*
G75*
G01*
X1051307Y-969425D02*
G02*
X1057307Y-975425I0J-6000D01*
G75*
G01*
X1057307Y-1034575D02*
G02*
X1051307Y-1040575I-6000J0D01*
G75*
G01*
X396307Y-530575D02*
G03*
X402307Y-524575I0J6000D01*
G75*
G01*
X402307Y-465425D02*
G03*
X396307Y-459425I-6000J0D01*
G75*
G01*
X253693Y-530575D02*
G02*
X247693Y-524575I0J6000D01*
G75*
G01*
X247693Y-465425D02*
G02*
X253693Y-459425I6000J0D01*
G75*
G01*
X515575Y-1048693D02*
G03*
X509575Y-1042693I-6000J0D01*
G75*
G01*
X450425Y-1042693D02*
G03*
X444425Y-1048693I0J-6000D01*
G75*
G01*
X515575Y-1191307D02*
G02*
X509575Y-1197307I-6000J0D01*
G75*
G01*
X450425Y-1197307D02*
G02*
X444425Y-1191307I0J6000D01*
G75*
G01*
X1555575Y-1813693D02*
G03*
X1549575Y-1807693I-6000J0D01*
G75*
G01*
X1490425Y-1807693D02*
G03*
X1484425Y-1813693I0J-6000D01*
G75*
G01*
X1555575Y-1956307D02*
G02*
X1549575Y-1962307I-6000J0D01*
G75*
G01*
X1490425Y-1962307D02*
G02*
X1484425Y-1956307I0J6000D01*
G75*
G01*
X489425Y-746307D02*
G03*
X495425Y-752307I6000J0D01*
G75*
G01*
X554575Y-752307D02*
G03*
X560575Y-746307I0J6000D01*
G75*
G01*
X489425Y-603693D02*
G02*
X495425Y-597693I6000J0D01*
G75*
G01*
X554575Y-597693D02*
G02*
X560575Y-603693I0J-6000D01*
G75*
G01*
X1465535Y-1813693D02*
G03*
X1459535Y-1807693I-6000J0D01*
G75*
G01*
X1400385Y-1807693D02*
G03*
X1394385Y-1813693I0J-6000D01*
G75*
G01*
X1465535Y-1956307D02*
G02*
X1459535Y-1962307I-6000J0D01*
G75*
G01*
X1400385Y-1962307D02*
G02*
X1394385Y-1956307I0J6000D01*
D12*
G75*
G01*
X1780449Y-1220386D02*
G03*
X1780449Y-1220486I-5000J-50D01*
D46*
G75*
G01*
X1773693Y-1424425D02*
G03*
X1767693Y-1430425I0J-6000D01*
G75*
G01*
X1767693Y-1489575D02*
G03*
X1773693Y-1495575I6000J0D01*
G75*
G01*
X1916307Y-1424425D02*
G02*
X1922307Y-1430425I0J-6000D01*
G75*
G01*
X1922307Y-1489575D02*
G02*
X1916307Y-1495575I-6000J0D01*
D10*
G75*
G01
X1681110Y-274990D02*
G03X1681110Y-274990I-181100J0D01*
G75*
G01
X1529540Y-274990D02*
G03X1529540Y-274990I-29530J0D01*
G75*
G01
X310000Y-1649990D02*
G03X310000Y-1649990I-5000J0D01*
G75*
G01
X102360Y-490000D02*
G03X102360Y-490000I-22360J0D01*
G75*
G01
X120000Y-490000D02*
G03X120000Y-490000I-40000J0D01*
G75*
G01
X102360Y-410000D02*
G03X102360Y-410000I-22360J0D01*
G75*
G01
X102360Y-570000D02*
G03X102360Y-570000I-22360J0D01*
D12*
G75*
G01
X60910Y-1078120D02*
G03X60910Y-1078120I-5910J0D01*
G75*
G01
X32080Y-1151090D02*
G03X32080Y-1151090I-5910J0D01*
M02*
