G04 Layer: TopPasteMaskLayer*
G04 EasyEDA v6.4.19.5, 2021-06-01T19:55:23+08:00*
G04 f6417cd83a5c4070a8feff0417839a82,e682ae8673584cf28fd3bb4b7cd2207e,10*
G04 Gerber Generator version 0.2*
G04 Scale: 100 percent, Rotated: No, Reflected: No *
G04 Dimensions in inches *
G04 leading zeros omitted , absolute positions ,3 integer and 6 decimal *
%FSLAX36Y36*%
%MOIN*%

%ADD12C,0.0118*%
%ADD13C,0.0220*%
%ADD22R,0.0433X0.0394*%
%ADD30R,0.0591X0.0551*%
%ADD31R,0.0787X0.0157*%
%ADD33R,0.0394X0.0669*%
%ADD34R,0.0276X0.0098*%
%ADD35R,0.0209X0.0421*%
%ADD36R,0.0390X0.0346*%

%LPD*%
G36*
X1426320Y-574180D02*
G01*
X1407900Y-589340D01*
X1407900Y-616400D01*
X1411840Y-620340D01*
X1458160Y-620340D01*
X1462100Y-616400D01*
X1462100Y-589340D01*
X1443680Y-574180D01*
G37*
G36*
X1411840Y-499660D02*
G01*
X1407900Y-503600D01*
X1407900Y-530660D01*
X1426320Y-545820D01*
X1443680Y-545820D01*
X1462100Y-530660D01*
X1462100Y-503600D01*
X1458160Y-499660D01*
G37*
G36*
X1798600Y-472900D02*
G01*
X1794660Y-476840D01*
X1794660Y-523160D01*
X1798600Y-527100D01*
X1825660Y-527100D01*
X1840820Y-508680D01*
X1840820Y-491320D01*
X1825660Y-472900D01*
G37*
G36*
X1884340Y-472900D02*
G01*
X1869180Y-491320D01*
X1869180Y-508680D01*
X1884340Y-527100D01*
X1911399Y-527100D01*
X1915340Y-523160D01*
X1915340Y-476840D01*
X1911399Y-472900D01*
G37*
G36*
X1888460Y-553120D02*
G01*
X1884540Y-557040D01*
X1884540Y-570220D01*
X1888460Y-574160D01*
X1900480Y-574160D01*
X1904400Y-578100D01*
X1904400Y-591900D01*
X1900480Y-595840D01*
X1888460Y-595840D01*
X1884540Y-599780D01*
X1884540Y-612960D01*
X1888460Y-616880D01*
X1939060Y-616880D01*
X1943000Y-612960D01*
X1943000Y-557040D01*
X1939060Y-553120D01*
G37*
G36*
X1770940Y-553120D02*
G01*
X1767020Y-557040D01*
X1767020Y-612960D01*
X1770940Y-616880D01*
X1821540Y-616880D01*
X1825480Y-612960D01*
X1825480Y-599780D01*
X1821540Y-595840D01*
X1809540Y-595840D01*
X1805600Y-591900D01*
X1805600Y-578100D01*
X1809540Y-574160D01*
X1821540Y-574160D01*
X1825480Y-570220D01*
X1825480Y-557040D01*
X1821540Y-553120D01*
G37*
G36*
X50940Y-803120D02*
G01*
X47000Y-807039D01*
X47000Y-862960D01*
X50940Y-866880D01*
X101540Y-866880D01*
X105480Y-862960D01*
X105480Y-849780D01*
X101540Y-845840D01*
X89520Y-845840D01*
X85600Y-841900D01*
X85600Y-828100D01*
X89520Y-824160D01*
X101540Y-824160D01*
X105480Y-820220D01*
X105480Y-807039D01*
X101540Y-803120D01*
G37*
G36*
X168460Y-803120D02*
G01*
X164520Y-807039D01*
X164520Y-820220D01*
X168460Y-824160D01*
X180460Y-824160D01*
X184400Y-828100D01*
X184400Y-841900D01*
X180460Y-845840D01*
X168460Y-845840D01*
X164520Y-849780D01*
X164520Y-862960D01*
X168460Y-866880D01*
X219060Y-866880D01*
X222979Y-862960D01*
X222979Y-807039D01*
X219060Y-803120D01*
G37*
G36*
X450160Y-1490200D02*
G01*
X449360Y-1490980D01*
X449360Y-1508700D01*
X450560Y-1509880D01*
X469840Y-1509880D01*
X470640Y-1509100D01*
X470640Y-1490980D01*
X469840Y-1490200D01*
G37*
G36*
X450160Y-1520120D02*
G01*
X449360Y-1520900D01*
X449360Y-1538620D01*
X450560Y-1539800D01*
X469840Y-1539800D01*
X470640Y-1539019D01*
X470640Y-1520900D01*
X469840Y-1520120D01*
G37*
G36*
X310980Y-1704360D02*
G01*
X310200Y-1705160D01*
X310200Y-1724840D01*
X310980Y-1725640D01*
X328700Y-1725640D01*
X329880Y-1724440D01*
X329880Y-1705160D01*
X329099Y-1704360D01*
G37*
G36*
X340900Y-1704360D02*
G01*
X340120Y-1705160D01*
X340120Y-1724840D01*
X340900Y-1725640D01*
X358620Y-1725640D01*
X359799Y-1724440D01*
X359799Y-1705160D01*
X359020Y-1704360D01*
G37*
G36*
X1125980Y-1444360D02*
G01*
X1125200Y-1445160D01*
X1125200Y-1464840D01*
X1125980Y-1465640D01*
X1143700Y-1465640D01*
X1144880Y-1464440D01*
X1144880Y-1445160D01*
X1144100Y-1444360D01*
G37*
G36*
X1155900Y-1444360D02*
G01*
X1155120Y-1445160D01*
X1155120Y-1464840D01*
X1155900Y-1465640D01*
X1173620Y-1465640D01*
X1174800Y-1464440D01*
X1174800Y-1445160D01*
X1174020Y-1444360D01*
G37*
G36*
X505980Y-784360D02*
G01*
X505200Y-785160D01*
X505200Y-804840D01*
X505980Y-805639D01*
X523700Y-805639D01*
X524880Y-804440D01*
X524880Y-785160D01*
X524099Y-784360D01*
G37*
G36*
X535900Y-784360D02*
G01*
X535120Y-785160D01*
X535120Y-804840D01*
X535900Y-805639D01*
X553620Y-805639D01*
X554800Y-804440D01*
X554800Y-785160D01*
X554020Y-784360D01*
G37*
G36*
X15940Y-1213120D02*
G01*
X12000Y-1217040D01*
X12000Y-1272960D01*
X15940Y-1276880D01*
X66540Y-1276880D01*
X70480Y-1272960D01*
X70480Y-1259780D01*
X66540Y-1255840D01*
X54520Y-1255840D01*
X50599Y-1251900D01*
X50599Y-1238100D01*
X54520Y-1234160D01*
X66540Y-1234160D01*
X70480Y-1230220D01*
X70480Y-1217040D01*
X66540Y-1213120D01*
G37*
G36*
X133460Y-1213120D02*
G01*
X129520Y-1217040D01*
X129520Y-1230220D01*
X133460Y-1234160D01*
X145460Y-1234160D01*
X149400Y-1238100D01*
X149400Y-1251900D01*
X145460Y-1255840D01*
X133460Y-1255840D01*
X129520Y-1259780D01*
X129520Y-1272960D01*
X133460Y-1276880D01*
X184060Y-1276880D01*
X187979Y-1272960D01*
X187979Y-1217040D01*
X184060Y-1213120D01*
G37*
G36*
X50940Y-708120D02*
G01*
X47000Y-712039D01*
X47000Y-767960D01*
X50940Y-771880D01*
X101540Y-771880D01*
X105480Y-767960D01*
X105480Y-754780D01*
X101540Y-750840D01*
X89520Y-750840D01*
X85600Y-746900D01*
X85600Y-733100D01*
X89520Y-729160D01*
X101540Y-729160D01*
X105480Y-725220D01*
X105480Y-712039D01*
X101540Y-708120D01*
G37*
G36*
X168460Y-708120D02*
G01*
X164520Y-712039D01*
X164520Y-725220D01*
X168460Y-729160D01*
X180460Y-729160D01*
X184400Y-733100D01*
X184400Y-746900D01*
X180460Y-750840D01*
X168460Y-750840D01*
X164520Y-754780D01*
X164520Y-767960D01*
X168460Y-771880D01*
X219060Y-771880D01*
X222979Y-767960D01*
X222979Y-712039D01*
X219060Y-708120D01*
G37*
G36*
X375920Y-1313440D02*
G01*
X342520Y-1313500D01*
X332320Y-1327680D01*
X332120Y-1363560D01*
X342939Y-1376459D01*
X376220Y-1376480D01*
X379640Y-1373140D01*
X379680Y-1317100D01*
G37*
G36*
X253540Y-1313500D02*
G01*
X250120Y-1316840D01*
X250080Y-1372880D01*
X253840Y-1376540D01*
X287220Y-1376480D01*
X297440Y-1362300D01*
X297620Y-1326420D01*
X286820Y-1313520D01*
G37*
G36*
X1272000Y-1405980D02*
G01*
X1268080Y-1409920D01*
X1268080Y-1470080D01*
X1272000Y-1474019D01*
X1322600Y-1474019D01*
X1326540Y-1470080D01*
X1326540Y-1455500D01*
X1322600Y-1451560D01*
X1310600Y-1451560D01*
X1306660Y-1447620D01*
X1306660Y-1432380D01*
X1310600Y-1428440D01*
X1322600Y-1428440D01*
X1326540Y-1424500D01*
X1326540Y-1409920D01*
X1322600Y-1405980D01*
G37*
G36*
X1397400Y-1405980D02*
G01*
X1393460Y-1409920D01*
X1393460Y-1424500D01*
X1397400Y-1428440D01*
X1409400Y-1428440D01*
X1413340Y-1432380D01*
X1413340Y-1447620D01*
X1409400Y-1451560D01*
X1397400Y-1451560D01*
X1393460Y-1455500D01*
X1393460Y-1470080D01*
X1397400Y-1474019D01*
X1448000Y-1474019D01*
X1451920Y-1470080D01*
X1451920Y-1409920D01*
X1448000Y-1405980D01*
G37*
G36*
X1092000Y-978420D02*
G01*
X1088080Y-982360D01*
X1088080Y-1042520D01*
X1092000Y-1046460D01*
X1142600Y-1046460D01*
X1146540Y-1042520D01*
X1146540Y-1027940D01*
X1142600Y-1024000D01*
X1130600Y-1024000D01*
X1126660Y-1020060D01*
X1126660Y-1004820D01*
X1130600Y-1000879D01*
X1142600Y-1000879D01*
X1146540Y-996940D01*
X1146540Y-982360D01*
X1142600Y-978420D01*
G37*
G36*
X1217400Y-978420D02*
G01*
X1213460Y-982360D01*
X1213460Y-996940D01*
X1217400Y-1000879D01*
X1229400Y-1000879D01*
X1233340Y-1004820D01*
X1233340Y-1020060D01*
X1229400Y-1024000D01*
X1217400Y-1024000D01*
X1213460Y-1027940D01*
X1213460Y-1042520D01*
X1217400Y-1046460D01*
X1268000Y-1046460D01*
X1271920Y-1042520D01*
X1271920Y-982360D01*
X1268000Y-978420D01*
G37*
G36*
X1302400Y-1769440D02*
G01*
X1298460Y-1773380D01*
X1298460Y-1823980D01*
X1302400Y-1827920D01*
X1316980Y-1827920D01*
X1320920Y-1823980D01*
X1320920Y-1811980D01*
X1324860Y-1808040D01*
X1340100Y-1808040D01*
X1344040Y-1811980D01*
X1344040Y-1823980D01*
X1347980Y-1827920D01*
X1362560Y-1827920D01*
X1366500Y-1823980D01*
X1366500Y-1773380D01*
X1362560Y-1769440D01*
G37*
G36*
X1302400Y-1894840D02*
G01*
X1298460Y-1898779D01*
X1298460Y-1949360D01*
X1302400Y-1953300D01*
X1362560Y-1953300D01*
X1366500Y-1949360D01*
X1366500Y-1898779D01*
X1362560Y-1894840D01*
X1347980Y-1894840D01*
X1344040Y-1898779D01*
X1344040Y-1910780D01*
X1340100Y-1914720D01*
X1324860Y-1914720D01*
X1320920Y-1910780D01*
X1320920Y-1898779D01*
X1316980Y-1894840D01*
G37*
G36*
X1587400Y-1769440D02*
G01*
X1583460Y-1773380D01*
X1583460Y-1823980D01*
X1587400Y-1827920D01*
X1601980Y-1827920D01*
X1605920Y-1823980D01*
X1605920Y-1811980D01*
X1609860Y-1808040D01*
X1625100Y-1808040D01*
X1629040Y-1811980D01*
X1629040Y-1823980D01*
X1632980Y-1827920D01*
X1647560Y-1827920D01*
X1651500Y-1823980D01*
X1651500Y-1773380D01*
X1647560Y-1769440D01*
G37*
G36*
X1587400Y-1894840D02*
G01*
X1583460Y-1898779D01*
X1583460Y-1949360D01*
X1587400Y-1953300D01*
X1647560Y-1953300D01*
X1651500Y-1949360D01*
X1651500Y-1898779D01*
X1647560Y-1894840D01*
X1632980Y-1894840D01*
X1629040Y-1898779D01*
X1629040Y-1910780D01*
X1625100Y-1914720D01*
X1609860Y-1914720D01*
X1605920Y-1910780D01*
X1605920Y-1898779D01*
X1601980Y-1894840D01*
G37*
G36*
X471500Y-961520D02*
G01*
X453420Y-980400D01*
X453420Y-1014360D01*
X457360Y-1018300D01*
X502640Y-1018300D01*
X506580Y-1014360D01*
X506580Y-980400D01*
X488500Y-961520D01*
G37*
G36*
X457360Y-881700D02*
G01*
X453420Y-885639D01*
X453420Y-919599D01*
X471500Y-938480D01*
X488500Y-938480D01*
X506580Y-919599D01*
X506580Y-885639D01*
X502640Y-881700D01*
G37*
G36*
X915639Y-978420D02*
G01*
X911700Y-982360D01*
X911700Y-1027640D01*
X915639Y-1031580D01*
X949620Y-1031580D01*
X968480Y-1013500D01*
X968480Y-996500D01*
X949620Y-978420D01*
G37*
G36*
X1010380Y-978420D02*
G01*
X991520Y-996500D01*
X991520Y-1013500D01*
X1010380Y-1031580D01*
X1044360Y-1031580D01*
X1048300Y-1027640D01*
X1048300Y-982360D01*
X1044360Y-978420D01*
G37*
G36*
X355400Y-468420D02*
G01*
X336520Y-486500D01*
X336520Y-503500D01*
X355400Y-521580D01*
X389360Y-521580D01*
X393300Y-517640D01*
X393300Y-472360D01*
X389360Y-468420D01*
G37*
G36*
X260640Y-468420D02*
G01*
X256700Y-472360D01*
X256700Y-517640D01*
X260640Y-521580D01*
X294600Y-521580D01*
X313480Y-503500D01*
X313480Y-486500D01*
X294600Y-468420D01*
G37*
G36*
X457360Y-1051700D02*
G01*
X453420Y-1055640D01*
X453420Y-1089600D01*
X471500Y-1108480D01*
X488500Y-1108480D01*
X506580Y-1089600D01*
X506580Y-1055640D01*
X502640Y-1051700D01*
G37*
G36*
X471500Y-1131520D02*
G01*
X453420Y-1150400D01*
X453420Y-1184360D01*
X457360Y-1188300D01*
X502640Y-1188300D01*
X506580Y-1184360D01*
X506580Y-1150400D01*
X488500Y-1131520D01*
G37*
G36*
X1497360Y-1816699D02*
G01*
X1493420Y-1820640D01*
X1493420Y-1854600D01*
X1511500Y-1873480D01*
X1528500Y-1873480D01*
X1546579Y-1854600D01*
X1546579Y-1820640D01*
X1542640Y-1816699D01*
G37*
G36*
X1511500Y-1896519D02*
G01*
X1493420Y-1915400D01*
X1493420Y-1949360D01*
X1497360Y-1953300D01*
X1542640Y-1953300D01*
X1546579Y-1949360D01*
X1546579Y-1915400D01*
X1528500Y-1896519D01*
G37*
G36*
X516500Y-686520D02*
G01*
X498420Y-705400D01*
X498420Y-739360D01*
X502360Y-743300D01*
X547640Y-743300D01*
X551580Y-739360D01*
X551580Y-705400D01*
X533500Y-686520D01*
G37*
G36*
X502360Y-606700D02*
G01*
X498420Y-610640D01*
X498420Y-644599D01*
X516500Y-663480D01*
X533500Y-663480D01*
X551580Y-644599D01*
X551580Y-610640D01*
X547640Y-606700D01*
G37*
G36*
X1407320Y-1816699D02*
G01*
X1403380Y-1820640D01*
X1403380Y-1854600D01*
X1421459Y-1873480D01*
X1438460Y-1873480D01*
X1456540Y-1854600D01*
X1456540Y-1820640D01*
X1452600Y-1816699D01*
G37*
G36*
X1421459Y-1896519D02*
G01*
X1403380Y-1915400D01*
X1403380Y-1949360D01*
X1407320Y-1953300D01*
X1452600Y-1953300D01*
X1456540Y-1949360D01*
X1456540Y-1915400D01*
X1438460Y-1896519D01*
G37*
G36*
X1780980Y-1524360D02*
G01*
X1780200Y-1525160D01*
X1780200Y-1544840D01*
X1780980Y-1545640D01*
X1798700Y-1545640D01*
X1799880Y-1544440D01*
X1799880Y-1525160D01*
X1799100Y-1524360D01*
G37*
G36*
X1810900Y-1524360D02*
G01*
X1810120Y-1525160D01*
X1810120Y-1544840D01*
X1810900Y-1545640D01*
X1828620Y-1545640D01*
X1829800Y-1544440D01*
X1829800Y-1525160D01*
X1829019Y-1524360D01*
G37*
G36*
X1780640Y-1433420D02*
G01*
X1776699Y-1437360D01*
X1776699Y-1482640D01*
X1780640Y-1486579D01*
X1814620Y-1486579D01*
X1833480Y-1468500D01*
X1833480Y-1451500D01*
X1814620Y-1433420D01*
G37*
G36*
X1875380Y-1433420D02*
G01*
X1856519Y-1451500D01*
X1856519Y-1468500D01*
X1875380Y-1486579D01*
X1909360Y-1486579D01*
X1913300Y-1482640D01*
X1913300Y-1437360D01*
X1909360Y-1433420D01*
G37*
G36*
X736840Y-1639660D02*
G01*
X732900Y-1643600D01*
X732900Y-1670660D01*
X751320Y-1685820D01*
X768680Y-1685820D01*
X787099Y-1670660D01*
X787099Y-1643600D01*
X783160Y-1639660D01*
G37*
G36*
X751320Y-1714180D02*
G01*
X732900Y-1729340D01*
X732900Y-1756399D01*
X736840Y-1760340D01*
X783160Y-1760340D01*
X787099Y-1756399D01*
X787099Y-1729340D01*
X768680Y-1714180D01*
G37*
G36*
X1874340Y-1122900D02*
G01*
X1859180Y-1141320D01*
X1859180Y-1158680D01*
X1874340Y-1177100D01*
X1901399Y-1177100D01*
X1905340Y-1173160D01*
X1905340Y-1126840D01*
X1901399Y-1122900D01*
G37*
G36*
X1788600Y-1122900D02*
G01*
X1784660Y-1126840D01*
X1784660Y-1173160D01*
X1788600Y-1177100D01*
X1815660Y-1177100D01*
X1830820Y-1158680D01*
X1830820Y-1141320D01*
X1815660Y-1122900D01*
G37*
G36*
X254560Y-1602400D02*
G01*
X243000Y-1613200D01*
X243000Y-1633020D01*
X245520Y-1635540D01*
X274480Y-1635540D01*
X277000Y-1633020D01*
X277000Y-1613200D01*
X265440Y-1602400D01*
G37*
G36*
X245520Y-1544460D02*
G01*
X243000Y-1546980D01*
X243000Y-1566800D01*
X254560Y-1577600D01*
X265440Y-1577600D01*
X277000Y-1566800D01*
X277000Y-1546980D01*
X274480Y-1544460D01*
G37*
G36*
X344340Y-1417900D02*
G01*
X329180Y-1436320D01*
X329180Y-1453680D01*
X344340Y-1472100D01*
X371400Y-1472100D01*
X375340Y-1468160D01*
X375340Y-1421840D01*
X371400Y-1417900D01*
G37*
G36*
X258600Y-1417900D02*
G01*
X254660Y-1421840D01*
X254660Y-1468160D01*
X258600Y-1472100D01*
X285660Y-1472100D01*
X300820Y-1453680D01*
X300820Y-1436320D01*
X285660Y-1417900D01*
G37*
G36*
X1221320Y-1584180D02*
G01*
X1202900Y-1599340D01*
X1202900Y-1626399D01*
X1206840Y-1630340D01*
X1253160Y-1630340D01*
X1257100Y-1626399D01*
X1257100Y-1599340D01*
X1238680Y-1584180D01*
G37*
G36*
X1206840Y-1509660D02*
G01*
X1202900Y-1513600D01*
X1202900Y-1540660D01*
X1221320Y-1555820D01*
X1238680Y-1555820D01*
X1257100Y-1540660D01*
X1257100Y-1513600D01*
X1253160Y-1509660D01*
G37*
G36*
X1316320Y-1584180D02*
G01*
X1297900Y-1599340D01*
X1297900Y-1626399D01*
X1301840Y-1630340D01*
X1348160Y-1630340D01*
X1352100Y-1626399D01*
X1352100Y-1599340D01*
X1333680Y-1584180D01*
G37*
G36*
X1301840Y-1509660D02*
G01*
X1297900Y-1513600D01*
X1297900Y-1540660D01*
X1316320Y-1555820D01*
X1333680Y-1555820D01*
X1352100Y-1540660D01*
X1352100Y-1513600D01*
X1348160Y-1509660D01*
G37*
G36*
X1126320Y-1584180D02*
G01*
X1107900Y-1599340D01*
X1107900Y-1626399D01*
X1111840Y-1630340D01*
X1158160Y-1630340D01*
X1162100Y-1626399D01*
X1162100Y-1599340D01*
X1143680Y-1584180D01*
G37*
G36*
X1111840Y-1509660D02*
G01*
X1107900Y-1513600D01*
X1107900Y-1540660D01*
X1126320Y-1555820D01*
X1143680Y-1555820D01*
X1162100Y-1540660D01*
X1162100Y-1513600D01*
X1158160Y-1509660D01*
G37*
G36*
X1401840Y-1509660D02*
G01*
X1397900Y-1513600D01*
X1397900Y-1540660D01*
X1416320Y-1555820D01*
X1433680Y-1555820D01*
X1452100Y-1540660D01*
X1452100Y-1513600D01*
X1448160Y-1509660D01*
G37*
G36*
X1416320Y-1584180D02*
G01*
X1397900Y-1599340D01*
X1397900Y-1626399D01*
X1401840Y-1630340D01*
X1448160Y-1630340D01*
X1452100Y-1626399D01*
X1452100Y-1599340D01*
X1433680Y-1584180D01*
G37*
G36*
X236940Y-561520D02*
G01*
X233020Y-565460D01*
X233020Y-624540D01*
X236940Y-628480D01*
X276620Y-628480D01*
X280560Y-624540D01*
X280560Y-610320D01*
X276620Y-606380D01*
X268320Y-606380D01*
X264380Y-602440D01*
X264380Y-587560D01*
X268320Y-583620D01*
X276620Y-583620D01*
X280560Y-579680D01*
X280560Y-565460D01*
X276620Y-561520D01*
G37*
G36*
X353380Y-561520D02*
G01*
X349440Y-565460D01*
X349440Y-579680D01*
X353380Y-583620D01*
X361680Y-583620D01*
X365620Y-587560D01*
X365620Y-602440D01*
X361680Y-606380D01*
X353380Y-606380D01*
X349440Y-610320D01*
X349440Y-624540D01*
X353380Y-628480D01*
X393060Y-628480D01*
X396980Y-624540D01*
X396980Y-565460D01*
X393060Y-561520D01*
G37*
G36*
X268600Y-802900D02*
G01*
X264660Y-806840D01*
X264660Y-853160D01*
X268600Y-857099D01*
X295660Y-857099D01*
X310820Y-838680D01*
X310820Y-821320D01*
X295660Y-802900D01*
G37*
G36*
X354340Y-802900D02*
G01*
X339180Y-821320D01*
X339180Y-838680D01*
X354340Y-857099D01*
X381400Y-857099D01*
X385340Y-853160D01*
X385340Y-806840D01*
X381400Y-802900D01*
G37*
G36*
X268600Y-722900D02*
G01*
X264660Y-726840D01*
X264660Y-773160D01*
X268600Y-777099D01*
X295660Y-777099D01*
X310820Y-758680D01*
X310820Y-741320D01*
X295660Y-722900D01*
G37*
G36*
X354340Y-722900D02*
G01*
X339180Y-741320D01*
X339180Y-758680D01*
X354340Y-777099D01*
X381400Y-777099D01*
X385340Y-773160D01*
X385340Y-726840D01*
X381400Y-722900D01*
G37*
G36*
X1431940Y-1271520D02*
G01*
X1428020Y-1275460D01*
X1428020Y-1334540D01*
X1431940Y-1338480D01*
X1471620Y-1338480D01*
X1475560Y-1334540D01*
X1475560Y-1320320D01*
X1471620Y-1316380D01*
X1463320Y-1316380D01*
X1459379Y-1312440D01*
X1459379Y-1297560D01*
X1463320Y-1293620D01*
X1471620Y-1293620D01*
X1475560Y-1289680D01*
X1475560Y-1275460D01*
X1471620Y-1271520D01*
G37*
G36*
X1548380Y-1271520D02*
G01*
X1544440Y-1275460D01*
X1544440Y-1289680D01*
X1548380Y-1293620D01*
X1556680Y-1293620D01*
X1560620Y-1297560D01*
X1560620Y-1312440D01*
X1556680Y-1316380D01*
X1548380Y-1316380D01*
X1544440Y-1320320D01*
X1544440Y-1334540D01*
X1548380Y-1338480D01*
X1588060Y-1338480D01*
X1591980Y-1334540D01*
X1591980Y-1275460D01*
X1588060Y-1271520D01*
G37*
G36*
X1874340Y-1347900D02*
G01*
X1859180Y-1366320D01*
X1859180Y-1383680D01*
X1874340Y-1402100D01*
X1901399Y-1402100D01*
X1905340Y-1398160D01*
X1905340Y-1351840D01*
X1901399Y-1347900D01*
G37*
G36*
X1788600Y-1347900D02*
G01*
X1784660Y-1351840D01*
X1784660Y-1398160D01*
X1788600Y-1402100D01*
X1815660Y-1402100D01*
X1830820Y-1383680D01*
X1830820Y-1366320D01*
X1815660Y-1347900D01*
G37*
G36*
X1431940Y-1176520D02*
G01*
X1428020Y-1180460D01*
X1428020Y-1239540D01*
X1431940Y-1243480D01*
X1471620Y-1243480D01*
X1475560Y-1239540D01*
X1475560Y-1225320D01*
X1471620Y-1221380D01*
X1463320Y-1221380D01*
X1459379Y-1217440D01*
X1459379Y-1202560D01*
X1463320Y-1198620D01*
X1471620Y-1198620D01*
X1475560Y-1194680D01*
X1475560Y-1180460D01*
X1471620Y-1176520D01*
G37*
G36*
X1548380Y-1176520D02*
G01*
X1544440Y-1180460D01*
X1544440Y-1194680D01*
X1548380Y-1198620D01*
X1556680Y-1198620D01*
X1560620Y-1202560D01*
X1560620Y-1217440D01*
X1556680Y-1221380D01*
X1548380Y-1221380D01*
X1544440Y-1225320D01*
X1544440Y-1239540D01*
X1548380Y-1243480D01*
X1588060Y-1243480D01*
X1591980Y-1239540D01*
X1591980Y-1180460D01*
X1588060Y-1176520D01*
G37*
D12*
X794058Y-1171729D02*
G01*
X841301Y-1171729D01*
X794058Y-1191419D02*
G01*
X841301Y-1191419D01*
X794058Y-1211100D02*
G01*
X841301Y-1211100D01*
X794058Y-1230790D02*
G01*
X841301Y-1230790D01*
X794058Y-1250470D02*
G01*
X841301Y-1250470D01*
X794058Y-1270160D02*
G01*
X841301Y-1270160D01*
X794058Y-1289839D02*
G01*
X841301Y-1289839D01*
X794058Y-1309529D02*
G01*
X841301Y-1309529D01*
X794058Y-1329209D02*
G01*
X841301Y-1329209D01*
X794058Y-1348899D02*
G01*
X841301Y-1348899D01*
X794058Y-1368580D02*
G01*
X841301Y-1368580D01*
X794058Y-1388270D02*
G01*
X841301Y-1388270D01*
X876729Y-1423697D02*
G01*
X876729Y-1470942D01*
X896419Y-1423697D02*
G01*
X896419Y-1470942D01*
X916099Y-1423697D02*
G01*
X916099Y-1470942D01*
X935789Y-1423697D02*
G01*
X935789Y-1470942D01*
X955469Y-1423697D02*
G01*
X955469Y-1470942D01*
X975159Y-1423697D02*
G01*
X975159Y-1470942D01*
X994840Y-1423697D02*
G01*
X994840Y-1470942D01*
X1014530Y-1423697D02*
G01*
X1014530Y-1470942D01*
X1034210Y-1423697D02*
G01*
X1034210Y-1470942D01*
X1053900Y-1423697D02*
G01*
X1053900Y-1470942D01*
X1073580Y-1423697D02*
G01*
X1073580Y-1470942D01*
X1093270Y-1423697D02*
G01*
X1093270Y-1470942D01*
X1128698Y-1388270D02*
G01*
X1175941Y-1388270D01*
X1128698Y-1368580D02*
G01*
X1175941Y-1368580D01*
X1128698Y-1348899D02*
G01*
X1175941Y-1348899D01*
X1128698Y-1329209D02*
G01*
X1175941Y-1329209D01*
X1128698Y-1309529D02*
G01*
X1175941Y-1309529D01*
X1128698Y-1289839D02*
G01*
X1175941Y-1289839D01*
X1128698Y-1270160D02*
G01*
X1175941Y-1270160D01*
X1128698Y-1250470D02*
G01*
X1175941Y-1250470D01*
X1128698Y-1230790D02*
G01*
X1175941Y-1230790D01*
X1128698Y-1211100D02*
G01*
X1175941Y-1211100D01*
X1128698Y-1191419D02*
G01*
X1175941Y-1191419D01*
X1128698Y-1171729D02*
G01*
X1175941Y-1171729D01*
X1093270Y-1089058D02*
G01*
X1093270Y-1136302D01*
X1073580Y-1089058D02*
G01*
X1073580Y-1136302D01*
X1053900Y-1089058D02*
G01*
X1053900Y-1136302D01*
X1034210Y-1089058D02*
G01*
X1034210Y-1136302D01*
X1014530Y-1089058D02*
G01*
X1014530Y-1136302D01*
X994840Y-1089058D02*
G01*
X994840Y-1136302D01*
X975159Y-1089058D02*
G01*
X975159Y-1136302D01*
X955469Y-1089058D02*
G01*
X955469Y-1136302D01*
X935789Y-1089058D02*
G01*
X935789Y-1136302D01*
X916099Y-1089058D02*
G01*
X916099Y-1136302D01*
X896419Y-1089058D02*
G01*
X896419Y-1136302D01*
X876729Y-1089058D02*
G01*
X876729Y-1136302D01*
D13*
X55000Y-1127763D02*
G01*
X55000Y-1174416D01*
X105000Y-1127763D02*
G01*
X105000Y-1174416D01*
X155000Y-1127763D02*
G01*
X155000Y-1174416D01*
X205000Y-1127763D02*
G01*
X205000Y-1174416D01*
X255000Y-1127763D02*
G01*
X255000Y-1174416D01*
X305000Y-1127763D02*
G01*
X305000Y-1174416D01*
X355000Y-1127763D02*
G01*
X355000Y-1174416D01*
X405000Y-1127763D02*
G01*
X405000Y-1174416D01*
X55000Y-901583D02*
G01*
X55000Y-948236D01*
X105000Y-901583D02*
G01*
X105000Y-948236D01*
X155000Y-901583D02*
G01*
X155000Y-948236D01*
X205000Y-901583D02*
G01*
X205000Y-948236D01*
X255000Y-901583D02*
G01*
X255000Y-948236D01*
X305000Y-901583D02*
G01*
X305000Y-948236D01*
X355000Y-901583D02*
G01*
X355000Y-948236D01*
X405000Y-901583D02*
G01*
X405000Y-948236D01*
G36*
X1605743Y-607873D02*
G01*
X1605743Y-586929D01*
X1563617Y-586929D01*
X1563617Y-607873D01*
G37*
G36*
X1605743Y-533070D02*
G01*
X1605743Y-512126D01*
X1563617Y-512126D01*
X1563617Y-533070D01*
G37*
G36*
X1516373Y-570471D02*
G01*
X1516373Y-549528D01*
X1474246Y-549528D01*
X1474246Y-570471D01*
G37*
G36*
X1492637Y-1522126D02*
G01*
X1492637Y-1543071D01*
X1523346Y-1543071D01*
X1523346Y-1522126D01*
G37*
G36*
X1492637Y-1596929D02*
G01*
X1492637Y-1617873D01*
X1523346Y-1617873D01*
X1523346Y-1596929D01*
G37*
G36*
X1566653Y-1559528D02*
G01*
X1566653Y-1580471D01*
X1597362Y-1580471D01*
X1597362Y-1559528D01*
G37*
D22*
G01*
X745000Y-1034569D03*
G01*
X745000Y-1105439D03*
G01*
X820000Y-1034569D03*
G01*
X820000Y-1105439D03*
G01*
X820000Y-1525430D03*
G01*
X820000Y-1454560D03*
G01*
X745000Y-1525430D03*
G01*
X745000Y-1454560D03*
G36*
X321772Y-1511255D02*
G01*
X343425Y-1511255D01*
X343425Y-1550625D01*
X321772Y-1550625D01*
G37*
G36*
X396574Y-1511255D02*
G01*
X418227Y-1511255D01*
X418227Y-1550625D01*
X396574Y-1550625D01*
G37*
G36*
X396574Y-1629364D02*
G01*
X418227Y-1629364D01*
X418227Y-1668735D01*
X396574Y-1668735D01*
G37*
G36*
X359172Y-1629364D02*
G01*
X380827Y-1629364D01*
X380827Y-1668735D01*
X359172Y-1668735D01*
G37*
G36*
X321772Y-1629364D02*
G01*
X343425Y-1629364D01*
X343425Y-1668735D01*
X321772Y-1668735D01*
G37*
G36*
X270689Y-1225511D02*
G01*
X270689Y-1264488D01*
X236042Y-1264488D01*
X236042Y-1225511D01*
G37*
G36*
X369310Y-1225511D02*
G01*
X369310Y-1264488D01*
X403957Y-1264488D01*
X403957Y-1225511D01*
G37*
D30*
G01*
X80000Y-639600D03*
G01*
X80000Y-340399D03*
D31*
G01*
X182249Y-1546179D03*
G01*
X182249Y-1520590D03*
G01*
X182249Y-1495000D03*
G01*
X182249Y-1469409D03*
G01*
X182249Y-1443820D03*
G36*
X569567Y-1109528D02*
G01*
X640432Y-1109528D01*
X640432Y-1148897D01*
X569567Y-1148897D01*
G37*
G36*
X569567Y-1011102D02*
G01*
X640432Y-1011102D01*
X640432Y-1050471D01*
X569567Y-1050471D01*
G37*
D33*
G01*
X1840510Y-1269400D03*
D34*
G01*
X1887250Y-1299529D03*
G01*
X1887250Y-1279839D03*
G01*
X1887250Y-1260160D03*
G01*
X1887250Y-1240470D03*
G01*
X1792759Y-1299529D03*
G01*
X1792759Y-1279839D03*
G01*
X1792759Y-1260160D03*
G01*
X1792759Y-1240470D03*
D35*
G01*
X1222399Y-1814520D03*
G01*
X1147600Y-1814520D03*
G01*
X1185000Y-1903890D03*
G36*
X845511Y-1749310D02*
G01*
X884488Y-1749310D01*
X884488Y-1783957D01*
X845511Y-1783957D01*
G37*
D36*
G01*
X865000Y-1633370D03*
D35*
G01*
X1027399Y-1654520D03*
G01*
X952600Y-1654520D03*
G01*
X990000Y-1743890D03*
G36*
X578857Y-330787D02*
G01*
X681219Y-330787D01*
X681219Y-378031D01*
X578857Y-378031D01*
G37*
G36*
X578857Y-409526D02*
G01*
X681219Y-409526D01*
X681219Y-456770D01*
X578857Y-456770D01*
G37*
G36*
X578857Y-488266D02*
G01*
X681219Y-488266D01*
X681219Y-535510D01*
X578857Y-535510D01*
G37*
G36*
X578857Y-567006D02*
G01*
X681219Y-567006D01*
X681219Y-614250D01*
X578857Y-614250D01*
G37*
G36*
X578857Y-645747D02*
G01*
X681219Y-645747D01*
X681219Y-692991D01*
X578857Y-692991D01*
G37*
G36*
X578857Y-724488D02*
G01*
X681219Y-724488D01*
X681219Y-771732D01*
X578857Y-771732D01*
G37*
G36*
X578857Y-803227D02*
G01*
X681219Y-803227D01*
X681219Y-850471D01*
X578857Y-850471D01*
G37*
G36*
X578857Y-881967D02*
G01*
X681219Y-881967D01*
X681219Y-929211D01*
X578857Y-929211D01*
G37*
G36*
X1208779Y-881967D02*
G01*
X1311141Y-881967D01*
X1311141Y-929211D01*
X1208779Y-929211D01*
G37*
G36*
X1208778Y-803227D02*
G01*
X1311139Y-803227D01*
X1311139Y-850471D01*
X1208778Y-850471D01*
G37*
G36*
X1208778Y-724488D02*
G01*
X1311139Y-724488D01*
X1311139Y-771732D01*
X1208778Y-771732D01*
G37*
G36*
X1208778Y-645747D02*
G01*
X1311139Y-645747D01*
X1311139Y-692991D01*
X1208778Y-692991D01*
G37*
G36*
X1208778Y-567006D02*
G01*
X1311139Y-567006D01*
X1311139Y-614250D01*
X1208778Y-614250D01*
G37*
G36*
X1208778Y-488266D02*
G01*
X1311139Y-488266D01*
X1311139Y-535510D01*
X1208778Y-535510D01*
G37*
G36*
X1208778Y-409526D02*
G01*
X1311139Y-409526D01*
X1311139Y-456770D01*
X1208778Y-456770D01*
G37*
G36*
X1208778Y-330787D02*
G01*
X1311139Y-330787D01*
X1311139Y-378031D01*
X1208778Y-378031D01*
G37*
M02*
