G04 Layer: BottomSolderMaskLayer*
G04 EasyEDA v6.4.19.5, 2021-06-01T19:55:23+08:00*
G04 f6417cd83a5c4070a8feff0417839a82,e682ae8673584cf28fd3bb4b7cd2207e,10*
G04 Gerber Generator version 0.2*
G04 Scale: 100 percent, Rotated: No, Reflected: No *
G04 Dimensions in inches *
G04 leading zeros omitted , absolute positions ,3 integer and 6 decimal *
%FSLAX36Y36*%
%MOIN*%

%ADD53C,0.0592*%
%ADD55C,0.0513*%
%ADD58C,0.0789*%
%ADD75C,0.0749*%
%ADD77C,0.2442*%

%LPD*%
D53*
X95156Y-1636729D02*
G01*
X59724Y-1636729D01*
X95156Y-1353270D02*
G01*
X59724Y-1353270D01*
D55*
X785675Y-1865000D02*
G01*
X797485Y-1865000D01*
X884094Y-1865000D02*
G01*
X895906Y-1865000D01*
X982515Y-1865000D02*
G01*
X994324Y-1865000D01*
X1870000Y-979335D02*
G01*
X1870000Y-967525D01*
X1870000Y-880916D02*
G01*
X1870000Y-869104D01*
X1870000Y-782485D02*
G01*
X1870000Y-770675D01*
D58*
G01*
X1569600Y-205399D03*
G01*
X1430399Y-344600D03*
G01*
X600000Y-1333939D03*
G01*
X600000Y-1526060D03*
D53*
G01*
X182559Y-1399529D03*
G01*
X182559Y-1590470D03*
G36*
X1642500Y-1552500D02*
G01*
X1642500Y-1477500D01*
X1717500Y-1477500D01*
X1717500Y-1552500D01*
G37*
D75*
G01*
X1680000Y-1415000D03*
G01*
X1680000Y-1315000D03*
G01*
X1680000Y-1215000D03*
G01*
X1680000Y-1115000D03*
G01*
X1680000Y-1015000D03*
G01*
X1680000Y-915000D03*
G01*
X1680000Y-815000D03*
G01*
X1680000Y-715000D03*
G01*
X1680000Y-615000D03*
G01*
X1680000Y-515000D03*
D77*
G01*
X1791340Y-177170D03*
G01*
X177170Y-177170D03*
G01*
X177170Y-1791340D03*
G01*
X1791340Y-1791340D03*
G36*
X413299Y-1787500D02*
G01*
X413299Y-1712500D01*
X488299Y-1712500D01*
X488299Y-1787500D01*
G37*
D75*
G01*
X549209Y-1750000D03*
M02*
